<?xml version="1.0" encoding="utf-8"?>
<!-- Generator: Adobe Illustrator 19.1.1, SVG Export Plug-In . SVG Version: 6.00 Build 0)  -->
<svg version="1.1" id="Layer_1" xmlns="http://www.w3.org/2000/svg" xmlns:xlink="http://www.w3.org/1999/xlink" x="0px" y="0px"
	 viewBox="0 0 300 300" style="enable-background:new 0 0 300 300;" xml:space="preserve">
<style type="text/css">
	.st0{fill:#008DA0;}
	.st1{fill:#5CB6C2;}
	.st2{fill:#85C8D1;}
</style>
<g>
	<path class="st0" d="M283.3,150c0,73.6-59.7,133.3-133.4,133.3c-73.6,0-133.3-59.7-133.3-133.3C16.7,76.4,76.4,16.7,150,16.7
		c4,0,8,0.2,12,0.6C106.2,22.7,62.6,69.8,62.6,127c0,61,49.4,110.4,110.4,110.4c57.2,0,104.3-43.6,109.8-99.3
		C283.2,142,283.3,146,283.3,150z"/>
	<path class="st1" d="M225.5,34.3c50.2,29,67.5,93.3,38.4,143.5c-29,50.2-93.3,67.5-143.5,38.5c-50.3-29-67.5-93.3-38.5-143.5
		c1.6-2.8,3.3-5.4,5.1-8c-18.2,40.2-3.3,88.5,35.8,111c41.6,24,94.8,9.8,118.8-31.8C264.1,105,253,55.7,217.1,30
		C219.9,31.3,222.7,32.7,225.5,34.3z"/>
	<path class="st2" d="M245.9,100.7c0,44-35.6,79.6-79.6,79.6c-44,0-79.6-35.6-79.6-79.6c0-44,35.6-79.6,79.6-79.6
		c2.4,0,4.8,0.1,7.2,0.3c-33.3,3.3-59.3,31.4-59.3,65.6c0,36.4,29.5,65.9,65.9,65.9c34.2,0,62.3-26,65.6-59.3
		C245.8,95.9,245.9,98.2,245.9,100.7z"/>
</g>
</svg>
