<?xml version="1.0" encoding="utf-8"?>
<!-- Generator: Adobe Illustrator 19.1.1, SVG Export Plug-In . SVG Version: 6.00 Build 0)  -->
<svg version="1.1" id="Layer_1" xmlns="http://www.w3.org/2000/svg" xmlns:xlink="http://www.w3.org/1999/xlink" x="0px" y="0px"
	 viewBox="0 0 516.6 176.3" style="enable-background:new 0 0 516.6 176.3;" xml:space="preserve">
<style type="text/css">
	.st0{opacity:0.5;fill:#FFFFFF;}
	.st1{fill:#FFFFFF;}
</style>
<rect y="121.3" class="st0" width="514.8" height="55"/>
<rect y="52.3" class="st0" width="514.8" height="55"/>
<g>
	<path class="st1" d="M22.3,26.5c0.1,0,0.2,0,0.3,0.1l0.7,0.8c-0.5,0.6-1.1,1.1-1.7,1.5c-0.6,0.4-1.3,0.8-2,1.2
		c-0.7,0.3-1.5,0.6-2.4,0.7c-0.9,0.2-1.9,0.3-2.9,0.3c-1.8,0-3.4-0.3-4.9-0.9c-1.5-0.6-2.7-1.5-3.8-2.6c-1-1.1-1.9-2.5-2.5-4.1
		S2.2,20,2.2,18c0-1.9,0.3-3.7,0.9-5.3c0.6-1.6,1.5-3,2.6-4.1c1.1-1.1,2.4-2,3.9-2.7C11.2,5.3,12.9,5,14.7,5c0.9,0,1.8,0.1,2.5,0.2
		c0.8,0.1,1.5,0.3,2.2,0.6c0.7,0.3,1.3,0.6,1.9,1c0.6,0.4,1.2,0.8,1.7,1.3l-0.6,0.8C22.3,9,22.2,9.1,22,9.1c-0.1,0-0.2-0.1-0.4-0.2
		c-0.2-0.1-0.4-0.3-0.6-0.5c-0.3-0.2-0.6-0.4-0.9-0.6s-0.8-0.4-1.3-0.6S17.6,6.9,17,6.8c-0.7-0.1-1.4-0.2-2.3-0.2
		c-1.5,0-3,0.3-4.3,0.8C9.1,7.9,8,8.7,7.1,9.6c-0.9,1-1.7,2.2-2.2,3.6s-0.8,3-0.8,4.7c0,1.8,0.3,3.4,0.8,4.8
		c0.5,1.4,1.2,2.6,2.1,3.6c0.9,1,2,1.7,3.2,2.3s2.6,0.8,4,0.8c0.9,0,1.7-0.1,2.4-0.2c0.7-0.1,1.4-0.3,2-0.5c0.6-0.2,1.2-0.5,1.7-0.9
		c0.5-0.3,1-0.8,1.5-1.2c0.1,0,0.1-0.1,0.2-0.1C22.1,26.5,22.2,26.5,22.3,26.5z"/>
	<path class="st1" d="M51.8,18c0,2-0.3,3.8-0.9,5.4s-1.4,3-2.5,4.1c-1.1,1.1-2.3,2-3.8,2.6c-1.5,0.6-3.1,0.9-4.9,0.9
		c-1.8,0-3.4-0.3-4.9-0.9c-1.5-0.6-2.8-1.5-3.8-2.6c-1.1-1.1-1.9-2.5-2.5-4.1c-0.6-1.6-0.9-3.4-0.9-5.4c0-2,0.3-3.7,0.9-5.3
		c0.6-1.6,1.4-3,2.5-4.1c1.1-1.1,2.3-2,3.8-2.6C36.2,5.3,37.9,5,39.7,5c1.8,0,3.5,0.3,4.9,0.9c1.5,0.6,2.8,1.5,3.8,2.6
		s1.9,2.5,2.5,4.1S51.8,16,51.8,18z M49.9,18c0-1.8-0.2-3.4-0.7-4.8c-0.5-1.4-1.2-2.6-2.1-3.6s-2-1.7-3.2-2.3
		c-1.3-0.5-2.7-0.8-4.2-0.8c-1.5,0-2.9,0.3-4.1,0.8s-2.3,1.3-3.2,2.3c-0.9,1-1.6,2.2-2.1,3.6c-0.5,1.4-0.7,3-0.7,4.8
		c0,1.8,0.2,3.4,0.7,4.8c0.5,1.4,1.2,2.6,2.1,3.6c0.9,1,2,1.7,3.2,2.3c1.3,0.5,2.6,0.8,4.1,0.8c1.5,0,2.9-0.3,4.2-0.8
		c1.3-0.5,2.3-1.3,3.2-2.3s1.6-2.2,2.1-3.6C49.7,21.4,49.9,19.8,49.9,18z"/>
	<path class="st1" d="M59.1,5.3c0.1,0,0.2,0.1,0.3,0.3l16.5,22.1c0-0.4-0.1-0.7-0.1-1V5.3h1.6v25.5h-0.9c-0.3,0-0.5-0.1-0.7-0.4
		L59.4,8.3c0,0.4,0.1,0.7,0.1,1v21.4h-1.6V5.3h0.9C58.9,5.3,59,5.3,59.1,5.3z"/>
	<path class="st1" d="M101.7,5.3v1.6h-8.9v23.9h-1.8V6.8h-9V5.3H101.7z"/>
	<path class="st1" d="M123.2,30.7h-1.4c-0.2,0-0.3,0-0.4-0.1c-0.1-0.1-0.2-0.2-0.3-0.4l-3-7.4h-12.5l-3,7.4c0,0.1-0.1,0.2-0.3,0.3
		c-0.1,0.1-0.3,0.1-0.4,0.1h-1.4l10.4-25.5h1.8L123.2,30.7z M106.1,21.5h11.4l-5.2-12.9c-0.1-0.2-0.2-0.4-0.3-0.7
		c-0.1-0.3-0.2-0.5-0.3-0.8c-0.1,0.3-0.2,0.6-0.3,0.8c-0.1,0.3-0.2,0.5-0.3,0.7L106.1,21.5z"/>
	<path class="st1" d="M145.2,26.5c0.1,0,0.2,0,0.3,0.1l0.7,0.8c-0.5,0.6-1.1,1.1-1.7,1.5c-0.6,0.4-1.3,0.8-2,1.2
		c-0.7,0.3-1.5,0.6-2.4,0.7c-0.9,0.2-1.9,0.3-2.9,0.3c-1.8,0-3.4-0.3-4.9-0.9c-1.5-0.6-2.7-1.5-3.8-2.6c-1-1.1-1.9-2.5-2.5-4.1
		s-0.9-3.4-0.9-5.4c0-1.9,0.3-3.7,0.9-5.3c0.6-1.6,1.5-3,2.6-4.1c1.1-1.1,2.4-2,3.9-2.7c1.5-0.6,3.2-0.9,5.1-0.9
		c0.9,0,1.8,0.1,2.5,0.2c0.8,0.1,1.5,0.3,2.2,0.6c0.7,0.3,1.3,0.6,1.9,1c0.6,0.4,1.2,0.8,1.7,1.3l-0.6,0.8c-0.1,0.1-0.2,0.2-0.4,0.2
		c-0.1,0-0.2-0.1-0.4-0.2c-0.2-0.1-0.4-0.3-0.6-0.5c-0.3-0.2-0.6-0.4-0.9-0.6s-0.8-0.4-1.3-0.6s-1.1-0.3-1.7-0.5
		c-0.7-0.1-1.4-0.2-2.3-0.2c-1.5,0-3,0.3-4.3,0.8c-1.3,0.5-2.4,1.3-3.3,2.3c-0.9,1-1.7,2.2-2.2,3.6s-0.8,3-0.8,4.7
		c0,1.8,0.3,3.4,0.8,4.8c0.5,1.4,1.2,2.6,2.1,3.6c0.9,1,2,1.7,3.2,2.3s2.6,0.8,4,0.8c0.9,0,1.7-0.1,2.4-0.2c0.7-0.1,1.4-0.3,2-0.5
		c0.6-0.2,1.2-0.5,1.7-0.9c0.5-0.3,1-0.8,1.5-1.2c0.1,0,0.1-0.1,0.2-0.1C145,26.5,145.1,26.5,145.2,26.5z"/>
	<path class="st1" d="M168.6,5.3v1.6h-8.9v23.9h-1.8V6.8h-9V5.3H168.6z"/>
	<path class="st1" d="M189.4,29.4c1.2,0,2.3-0.2,3.3-0.6c1-0.4,1.8-1,2.5-1.8c0.7-0.8,1.2-1.6,1.5-2.7c0.4-1,0.5-2.1,0.5-3.3V5.3
		h1.8V21c0,1.4-0.2,2.7-0.7,3.9c-0.4,1.2-1.1,2.3-1.9,3.2c-0.8,0.9-1.8,1.6-3,2.1c-1.2,0.5-2.5,0.8-4,0.8s-2.8-0.3-4-0.8
		c-1.2-0.5-2.2-1.2-3-2.1c-0.8-0.9-1.5-2-1.9-3.2c-0.4-1.2-0.7-2.5-0.7-3.9V5.3h1.9V21c0,1.2,0.2,2.3,0.5,3.3c0.4,1,0.9,1.9,1.5,2.7
		c0.7,0.8,1.5,1.4,2.4,1.8C187.1,29.2,188.2,29.4,189.4,29.4z"/>
	<path class="st1" d="M218.7,8.4c-0.1,0.2-0.3,0.3-0.5,0.3c-0.2,0-0.4-0.1-0.6-0.3s-0.6-0.5-1-0.7s-0.9-0.5-1.6-0.7
		c-0.6-0.2-1.4-0.3-2.3-0.3c-0.9,0-1.7,0.1-2.4,0.4c-0.7,0.3-1.3,0.6-1.8,1.1s-0.8,1-1.1,1.6c-0.2,0.6-0.4,1.2-0.4,1.9
		c0,0.9,0.2,1.6,0.5,2.1c0.4,0.6,0.9,1,1.5,1.4c0.6,0.4,1.3,0.7,2,1s1.5,0.5,2.4,0.8c0.8,0.3,1.6,0.6,2.4,0.9c0.8,0.3,1.4,0.7,2,1.2
		c0.6,0.5,1.1,1.1,1.5,1.8c0.4,0.7,0.5,1.6,0.5,2.6c0,1.1-0.2,2.1-0.5,3c-0.4,0.9-0.9,1.8-1.6,2.5c-0.7,0.7-1.5,1.2-2.6,1.6
		c-1,0.4-2.2,0.6-3.5,0.6c-1.7,0-3.1-0.3-4.3-0.9c-1.2-0.6-2.3-1.4-3.2-2.4l0.5-0.8c0.1-0.2,0.3-0.3,0.5-0.3c0.1,0,0.2,0.1,0.4,0.2
		c0.2,0.1,0.4,0.3,0.6,0.5c0.2,0.2,0.5,0.4,0.9,0.7c0.3,0.2,0.7,0.5,1.2,0.7c0.4,0.2,1,0.4,1.5,0.5c0.6,0.1,1.2,0.2,2,0.2
		c1,0,1.9-0.2,2.7-0.5c0.8-0.3,1.5-0.7,2-1.3c0.5-0.5,1-1.2,1.3-1.9c0.3-0.7,0.4-1.5,0.4-2.3c0-0.9-0.2-1.6-0.5-2.2
		c-0.4-0.6-0.9-1.1-1.5-1.5c-0.6-0.4-1.3-0.7-2-1c-0.8-0.3-1.5-0.5-2.4-0.8s-1.6-0.5-2.4-0.8s-1.4-0.7-2-1.2
		c-0.6-0.5-1.1-1.1-1.5-1.8c-0.4-0.7-0.5-1.6-0.5-2.7c0-0.9,0.2-1.7,0.5-2.5s0.8-1.5,1.4-2.1s1.4-1.1,2.3-1.5c0.9-0.4,2-0.5,3.1-0.5
		c1.3,0,2.5,0.2,3.6,0.6c1.1,0.4,2,1.1,2.9,1.9L218.7,8.4z"/>
	<path class="st1" d="M248.8,5.3v1.6h-8.9v23.9H238V6.8h-9V5.3H248.8z"/>
	<path class="st1" d="M273.7,18c0,2-0.3,3.8-0.9,5.4s-1.4,3-2.5,4.1c-1.1,1.1-2.3,2-3.8,2.6c-1.5,0.6-3.1,0.9-5,0.9
		c-1.8,0-3.4-0.3-4.9-0.9c-1.5-0.6-2.8-1.5-3.8-2.6c-1.1-1.1-1.9-2.5-2.5-4.1c-0.6-1.6-0.9-3.4-0.9-5.4c0-2,0.3-3.7,0.9-5.3
		c0.6-1.6,1.4-3,2.5-4.1c1.1-1.1,2.3-2,3.8-2.6c1.5-0.6,3.1-0.9,4.9-0.9c1.8,0,3.5,0.3,5,0.9c1.5,0.6,2.8,1.5,3.8,2.6
		s1.9,2.5,2.5,4.1S273.7,16,273.7,18z M271.8,18c0-1.8-0.2-3.4-0.7-4.8c-0.5-1.4-1.2-2.6-2.1-3.6c-0.9-1-2-1.7-3.2-2.3
		s-2.7-0.8-4.2-0.8c-1.5,0-2.9,0.3-4.1,0.8s-2.3,1.3-3.2,2.3s-1.6,2.2-2.1,3.6c-0.5,1.4-0.7,3-0.7,4.8c0,1.8,0.2,3.4,0.7,4.8
		s1.2,2.6,2.1,3.6s2,1.7,3.2,2.3c1.3,0.5,2.6,0.8,4.1,0.8c1.5,0,2.9-0.3,4.2-0.8c1.3-0.5,2.3-1.3,3.2-2.3c0.9-1,1.6-2.2,2.1-3.6
		S271.8,19.8,271.8,18z"/>
	<path class="st1" d="M288.5,29.2h12.1v1.6h-13.9V5.3h1.8V29.2z"/>
	<path class="st1" d="M320.4,5.3v1.5h-13.4v10.3h11.2v1.5h-11.2v10.6h13.4v1.5h-15.3V5.3H320.4z"/>
	<path class="st1" d="M345.5,30.7h-1.4c-0.2,0-0.3,0-0.4-0.1c-0.1-0.1-0.2-0.2-0.3-0.4l-3-7.4h-12.5l-3,7.4c0,0.1-0.1,0.2-0.3,0.3
		c-0.1,0.1-0.3,0.1-0.4,0.1h-1.4l10.4-25.5h1.8L345.5,30.7z M328.5,21.5h11.4l-5.2-12.9c-0.1-0.2-0.2-0.4-0.3-0.7
		c-0.1-0.3-0.2-0.5-0.3-0.8c-0.1,0.3-0.2,0.6-0.3,0.8c-0.1,0.3-0.2,0.5-0.3,0.7L328.5,21.5z"/>
	<path class="st1" d="M351.9,19.2v11.5h-1.8V5.3h6.5c2.9,0,5.1,0.6,6.6,1.7c1.5,1.1,2.2,2.8,2.2,5c0,1-0.2,1.9-0.5,2.7
		c-0.3,0.8-0.8,1.5-1.4,2.1c-0.6,0.6-1.4,1.1-2.3,1.5c-0.9,0.4-1.9,0.6-3,0.8c0.3,0.2,0.5,0.4,0.8,0.7l8.8,11h-1.6
		c-0.2,0-0.4,0-0.5-0.1c-0.1-0.1-0.3-0.2-0.4-0.4L357,19.9c-0.2-0.3-0.4-0.5-0.7-0.6c-0.2-0.1-0.6-0.2-1.1-0.2H351.9z M351.9,17.8
		h4.4c1.1,0,2.1-0.1,3-0.4c0.9-0.3,1.6-0.7,2.3-1.2s1.1-1.1,1.4-1.8s0.5-1.5,0.5-2.4c0-1.8-0.6-3.2-1.8-4c-1.2-0.9-2.9-1.3-5.2-1.3
		h-4.7V17.8z"/>
	<path class="st1" d="M373.6,5.3c0.1,0,0.2,0.1,0.3,0.3l16.5,22.1c0-0.4-0.1-0.7-0.1-1V5.3h1.6v25.5h-0.9c-0.3,0-0.5-0.1-0.7-0.4
		L373.8,8.3c0,0.4,0.1,0.7,0.1,1v21.4h-1.6V5.3h0.9C373.4,5.3,373.5,5.3,373.6,5.3z"/>
	<path class="st1" d="M419.2,24.4c0.1-0.2,0.1-0.4,0.2-0.6s0.2-0.4,0.3-0.5l10-17.7c0.1-0.2,0.2-0.3,0.3-0.3c0.1,0,0.2-0.1,0.4-0.1
		h1.3v25.5H430V9c0-0.3,0-0.6,0.1-1l-10,17.8c-0.2,0.3-0.4,0.5-0.7,0.5H419c-0.3,0-0.5-0.2-0.7-0.5L408,8c0,0.3,0.1,0.7,0.1,1v21.7
		h-1.6V5.3h1.3c0.2,0,0.3,0,0.4,0.1c0.1,0,0.2,0.1,0.3,0.3l10.3,17.7C418.9,23.7,419,24,419.2,24.4z"/>
	<path class="st1" d="M461.9,18c0,2-0.3,3.8-0.9,5.4s-1.4,3-2.5,4.1c-1.1,1.1-2.3,2-3.8,2.6c-1.5,0.6-3.1,0.9-5,0.9
		c-1.8,0-3.4-0.3-4.9-0.9c-1.5-0.6-2.8-1.5-3.8-2.6c-1.1-1.1-1.9-2.5-2.5-4.1c-0.6-1.6-0.9-3.4-0.9-5.4c0-2,0.3-3.7,0.9-5.3
		c0.6-1.6,1.4-3,2.5-4.1c1.1-1.1,2.3-2,3.8-2.6c1.5-0.6,3.1-0.9,4.9-0.9c1.8,0,3.5,0.3,5,0.9c1.5,0.6,2.8,1.5,3.8,2.6
		s1.9,2.5,2.5,4.1S461.9,16,461.9,18z M460,18c0-1.8-0.2-3.4-0.7-4.8c-0.5-1.4-1.2-2.6-2.1-3.6c-0.9-1-2-1.7-3.2-2.3
		s-2.7-0.8-4.2-0.8c-1.5,0-2.9,0.3-4.1,0.8s-2.3,1.3-3.2,2.3s-1.6,2.2-2.1,3.6c-0.5,1.4-0.7,3-0.7,4.8c0,1.8,0.2,3.4,0.7,4.8
		s1.2,2.6,2.1,3.6s2,1.7,3.2,2.3c1.3,0.5,2.6,0.8,4.1,0.8c1.5,0,2.9-0.3,4.2-0.8c1.3-0.5,2.3-1.3,3.2-2.3c0.9-1,1.6-2.2,2.1-3.6
		S460,19.8,460,18z"/>
	<path class="st1" d="M470.3,19.2v11.5h-1.8V5.3h6.5c2.9,0,5.1,0.6,6.6,1.7c1.5,1.1,2.2,2.8,2.2,5c0,1-0.2,1.9-0.5,2.7
		c-0.3,0.8-0.8,1.5-1.4,2.1c-0.6,0.6-1.4,1.1-2.3,1.5c-0.9,0.4-1.9,0.6-3,0.8c0.3,0.2,0.5,0.4,0.8,0.7l8.8,11h-1.6
		c-0.2,0-0.4,0-0.5-0.1c-0.1-0.1-0.3-0.2-0.4-0.4l-8.2-10.3c-0.2-0.3-0.4-0.5-0.7-0.6c-0.2-0.1-0.6-0.2-1.1-0.2H470.3z M470.3,17.8
		h4.4c1.1,0,2.1-0.1,3-0.4c0.9-0.3,1.6-0.7,2.3-1.2s1.1-1.1,1.4-1.8s0.5-1.5,0.5-2.4c0-1.8-0.6-3.2-1.8-4c-1.2-0.9-2.9-1.3-5.2-1.3
		h-4.7V17.8z"/>
	<path class="st1" d="M505.9,5.3v1.5h-13.4v10.3h11.2v1.5h-11.2v10.6h13.4v1.5h-15.3V5.3H505.9z"/>
	<path class="st1" d="M510.7,15c0-0.2,0-0.4,0.1-0.6c0.1-0.2,0.2-0.4,0.4-0.5c0.2-0.1,0.3-0.3,0.5-0.4c0.2-0.1,0.4-0.1,0.7-0.1
		c0.2,0,0.4,0,0.6,0.1s0.4,0.2,0.5,0.4c0.1,0.2,0.3,0.3,0.4,0.5s0.1,0.4,0.1,0.6c0,0.2,0,0.5-0.1,0.7c-0.1,0.2-0.2,0.4-0.4,0.5
		c-0.2,0.2-0.3,0.3-0.5,0.4c-0.2,0.1-0.4,0.1-0.6,0.1c-0.5,0-0.9-0.2-1.2-0.5C510.9,15.9,510.7,15.5,510.7,15z M510.7,29.3
		c0-0.2,0-0.4,0.1-0.6c0.1-0.2,0.2-0.4,0.4-0.5s0.3-0.3,0.5-0.4c0.2-0.1,0.4-0.1,0.7-0.1c0.2,0,0.4,0,0.6,0.1
		c0.2,0.1,0.4,0.2,0.5,0.4c0.1,0.1,0.3,0.3,0.4,0.5c0.1,0.2,0.1,0.4,0.1,0.6c0,0.2,0,0.5-0.1,0.7c-0.1,0.2-0.2,0.4-0.4,0.5
		c-0.2,0.2-0.3,0.3-0.5,0.4s-0.4,0.1-0.6,0.1c-0.5,0-0.9-0.2-1.2-0.5S510.7,29.8,510.7,29.3z"/>
</g>
<g>
	<path class="st1" d="M29.9,72.3v0.9h-7.5v5.7h6.2v0.8h-6.2v5.9h7.5v0.9h-8.5V72.3H29.9z"/>
	<path class="st1" d="M32.8,86.5v-10h0.5c0.2,0,0.3,0.1,0.3,0.3l0.1,1.5c0.5-0.6,1-1,1.6-1.4c0.6-0.4,1.3-0.5,2-0.5
		c0.5,0,1,0.1,1.4,0.3c0.4,0.2,0.8,0.4,1,0.8s0.5,0.7,0.6,1.2s0.2,1,0.2,1.6v6.4h-0.9v-6.4c0-0.9-0.2-1.7-0.6-2.2
		c-0.4-0.5-1.1-0.8-2-0.8c-0.7,0-1.3,0.2-1.8,0.5c-0.6,0.3-1.1,0.8-1.5,1.4v7.5H32.8z"/>
	<path class="st1" d="M46.3,86.6c-0.7,0-1.2-0.2-1.6-0.6c-0.4-0.4-0.6-1-0.6-1.7v-6.8h-1.4c-0.1,0-0.1,0-0.2-0.1
		c0,0-0.1-0.1-0.1-0.2V77l1.7-0.1l0.2-3.6c0-0.1,0-0.1,0.1-0.2c0,0,0.1-0.1,0.2-0.1h0.4v3.8h3.1v0.7h-3.1v6.8c0,0.3,0,0.5,0.1,0.7
		c0.1,0.2,0.2,0.4,0.3,0.5c0.1,0.1,0.3,0.2,0.4,0.3s0.3,0.1,0.5,0.1c0.2,0,0.4,0,0.6-0.1c0.2-0.1,0.3-0.1,0.4-0.2
		c0.1-0.1,0.2-0.2,0.3-0.2s0.1-0.1,0.2-0.1c0.1,0,0.1,0,0.2,0.1l0.3,0.4c-0.3,0.3-0.6,0.5-1,0.7C47.1,86.6,46.7,86.6,46.3,86.6z"/>
	<path class="st1" d="M54.5,76.4c0.6,0,1.1,0.1,1.6,0.3s0.9,0.5,1.2,0.8s0.6,0.8,0.8,1.4s0.3,1.2,0.3,1.9c0,0.1,0,0.2-0.1,0.3
		c0,0.1-0.1,0.1-0.2,0.1h-7.2v0.2c0,0.7,0.1,1.4,0.3,2c0.2,0.6,0.4,1,0.7,1.4c0.3,0.4,0.7,0.7,1.2,0.9c0.5,0.2,1,0.3,1.5,0.3
		c0.5,0,0.9-0.1,1.3-0.2s0.7-0.2,0.9-0.4s0.4-0.3,0.6-0.4c0.1-0.1,0.3-0.2,0.3-0.2c0.1,0,0.2,0,0.2,0.1l0.3,0.3
		c-0.2,0.2-0.4,0.4-0.6,0.6c-0.3,0.2-0.6,0.3-0.9,0.4c-0.3,0.1-0.7,0.2-1,0.3c-0.4,0.1-0.7,0.1-1.1,0.1c-0.7,0-1.3-0.1-1.9-0.4
		c-0.6-0.2-1-0.6-1.4-1c-0.4-0.5-0.7-1-0.9-1.7c-0.2-0.7-0.3-1.4-0.3-2.3c0-0.7,0.1-1.4,0.3-2c0.2-0.6,0.5-1.1,0.9-1.6
		s0.9-0.8,1.4-1C53.1,76.5,53.8,76.4,54.5,76.4z M54.5,77.1c-0.5,0-1,0.1-1.4,0.2c-0.4,0.2-0.8,0.4-1.1,0.7
		c-0.3,0.3-0.5,0.7-0.7,1.1S51,80,51,80.5h6.5c0-0.5-0.1-1-0.2-1.4S57,78.3,56.7,78c-0.3-0.3-0.6-0.5-1-0.7
		C55.4,77.2,54.9,77.1,54.5,77.1z"/>
	<path class="st1" d="M60.9,86.5v-10h0.5c0.1,0,0.2,0,0.2,0.1c0,0,0.1,0.1,0.1,0.2l0.1,2.1c0.3-0.8,0.7-1.4,1.3-1.9
		c0.5-0.5,1.2-0.7,2-0.7c0.3,0,0.6,0,0.8,0.1s0.5,0.2,0.7,0.3l-0.1,0.7c0,0.1-0.1,0.2-0.2,0.2c0,0-0.1,0-0.2,0
		c-0.1,0-0.2-0.1-0.3-0.1c-0.1,0-0.2-0.1-0.4-0.1c-0.2,0-0.3,0-0.5,0c-0.8,0-1.4,0.2-1.9,0.7c-0.5,0.5-0.9,1.1-1.2,2v6.5H60.9z"/>
	<path class="st1" d="M77.6,80.6v5.8h-1v-5.8l-5.2-8.3h0.9c0.1,0,0.2,0,0.2,0.1c0.1,0,0.1,0.1,0.2,0.2l4.1,6.5
		c0.1,0.2,0.2,0.3,0.2,0.4c0.1,0.1,0.1,0.3,0.2,0.4c0.1-0.1,0.1-0.3,0.2-0.4c0.1-0.1,0.1-0.3,0.2-0.4l4-6.5c0-0.1,0.1-0.1,0.1-0.2
		c0.1,0,0.1-0.1,0.2-0.1h0.9L77.6,80.6z"/>
	<path class="st1" d="M86.9,76.4c0.7,0,1.4,0.1,1.9,0.4c0.6,0.2,1,0.6,1.4,1s0.7,1,0.9,1.6c0.2,0.6,0.3,1.3,0.3,2.1
		s-0.1,1.5-0.3,2.1c-0.2,0.6-0.5,1.2-0.9,1.6c-0.4,0.4-0.9,0.8-1.4,1c-0.6,0.2-1.2,0.4-1.9,0.4c-0.7,0-1.4-0.1-1.9-0.4
		c-0.6-0.2-1-0.6-1.4-1c-0.4-0.4-0.7-1-0.9-1.6c-0.2-0.6-0.3-1.3-0.3-2.1s0.1-1.5,0.3-2.1c0.2-0.6,0.5-1.2,0.9-1.6s0.9-0.8,1.4-1
		C85.6,76.5,86.2,76.4,86.9,76.4z M86.9,85.9c0.6,0,1.1-0.1,1.6-0.3c0.4-0.2,0.8-0.5,1.1-0.9c0.3-0.4,0.5-0.8,0.7-1.4
		c0.1-0.5,0.2-1.1,0.2-1.8c0-0.7-0.1-1.3-0.2-1.8c-0.1-0.5-0.4-1-0.7-1.4c-0.3-0.4-0.7-0.7-1.1-0.9s-1-0.3-1.6-0.3
		c-0.6,0-1.1,0.1-1.6,0.3s-0.8,0.5-1.1,0.9c-0.3,0.4-0.5,0.8-0.7,1.4c-0.2,0.5-0.2,1.1-0.2,1.8c0,0.7,0.1,1.3,0.2,1.8
		c0.1,0.5,0.4,1,0.7,1.4c0.3,0.4,0.7,0.7,1.1,0.9C85.8,85.8,86.3,85.9,86.9,85.9z"/>
	<path class="st1" d="M94.7,76.5v6.4c0,0.9,0.2,1.7,0.6,2.2c0.4,0.5,1.1,0.8,2,0.8c0.6,0,1.3-0.2,1.8-0.5c0.6-0.3,1.1-0.8,1.5-1.4
		v-7.5h1v10H101c-0.2,0-0.3-0.1-0.3-0.3l-0.1-1.5c-0.5,0.6-1,1-1.6,1.4c-0.6,0.3-1.3,0.5-2,0.5c-0.6,0-1-0.1-1.5-0.3s-0.8-0.4-1-0.8
		c-0.3-0.3-0.5-0.7-0.6-1.2c-0.1-0.5-0.2-1-0.2-1.6v-6.4H94.7z"/>
	<path class="st1" d="M104.8,86.5v-10h0.5c0.1,0,0.2,0,0.2,0.1c0,0,0.1,0.1,0.1,0.2l0.1,2.1c0.3-0.8,0.7-1.4,1.3-1.9
		c0.5-0.5,1.2-0.7,2-0.7c0.3,0,0.6,0,0.8,0.1s0.5,0.2,0.7,0.3l-0.1,0.7c0,0.1-0.1,0.2-0.2,0.2c0,0-0.1,0-0.2,0
		c-0.1,0-0.2-0.1-0.3-0.1c-0.1,0-0.2-0.1-0.4-0.1c-0.2,0-0.3,0-0.5,0c-0.8,0-1.4,0.2-1.9,0.7c-0.5,0.5-0.9,1.1-1.2,2v6.5H104.8z"/>
	<path class="st1" d="M117.8,72.4c0.1,0,0.1,0.1,0.2,0.2l9.2,12.3c0-0.2,0-0.4,0-0.6V72.3h0.9v14.1h-0.5c-0.2,0-0.3-0.1-0.4-0.2
		L117.9,74c0,0.2,0,0.4,0,0.6v11.9h-0.9V72.3h0.5C117.6,72.3,117.7,72.3,117.8,72.4z"/>
	<path class="st1" d="M138,86.5c-0.2,0-0.3-0.1-0.4-0.3l-0.1-1.3c-0.3,0.3-0.5,0.5-0.8,0.7s-0.6,0.4-0.8,0.5
		c-0.3,0.1-0.6,0.3-0.9,0.3c-0.3,0.1-0.7,0.1-1.1,0.1c-0.3,0-0.7-0.1-1-0.2c-0.3-0.1-0.6-0.3-0.9-0.5c-0.2-0.2-0.4-0.5-0.6-0.8
		c-0.1-0.3-0.2-0.7-0.2-1.2c0-0.4,0.1-0.8,0.4-1.2c0.2-0.4,0.6-0.7,1.1-0.9c0.5-0.3,1.2-0.5,2-0.6c0.8-0.2,1.8-0.3,2.9-0.3v-1
		c0-0.9-0.2-1.6-0.6-2.1c-0.4-0.5-1-0.7-1.8-0.7c-0.5,0-0.9,0.1-1.2,0.2c-0.3,0.1-0.6,0.3-0.9,0.4s-0.4,0.3-0.6,0.4
		c-0.1,0.1-0.3,0.2-0.4,0.2c-0.1,0-0.2-0.1-0.3-0.2l-0.2-0.3c0.5-0.5,1.1-0.9,1.6-1.2c0.6-0.3,1.2-0.4,2-0.4c0.5,0,1,0.1,1.4,0.3
		c0.4,0.2,0.7,0.4,1,0.7c0.3,0.3,0.5,0.7,0.6,1.1c0.1,0.4,0.2,1,0.2,1.5v6.5H138z M134,86c0.4,0,0.7,0,1.1-0.1
		c0.3-0.1,0.6-0.2,0.9-0.4c0.3-0.1,0.5-0.3,0.8-0.5c0.2-0.2,0.5-0.4,0.7-0.7v-2.6c-0.9,0-1.8,0.1-2.4,0.2c-0.7,0.1-1.2,0.3-1.7,0.5
		c-0.4,0.2-0.8,0.4-1,0.7c-0.2,0.3-0.3,0.6-0.3,0.9c0,0.3,0.1,0.6,0.2,0.9c0.1,0.2,0.3,0.4,0.4,0.6c0.2,0.2,0.4,0.3,0.6,0.3
		C133.5,85.9,133.8,86,134,86z"/>
	<path class="st1" d="M141.4,86.5v-10h0.5c0.2,0,0.3,0.1,0.3,0.3l0.1,1.4c0.2-0.3,0.4-0.5,0.6-0.8c0.2-0.2,0.5-0.4,0.7-0.6
		c0.3-0.2,0.5-0.3,0.8-0.4c0.3-0.1,0.6-0.1,0.9-0.1c0.7,0,1.3,0.2,1.7,0.6c0.4,0.4,0.7,1,0.9,1.8c0.1-0.4,0.3-0.8,0.5-1.1
		c0.2-0.3,0.5-0.5,0.7-0.7s0.6-0.3,0.9-0.4s0.7-0.1,1-0.1c0.5,0,0.9,0.1,1.3,0.2c0.4,0.2,0.7,0.4,1,0.7c0.3,0.3,0.5,0.7,0.6,1.2
		c0.1,0.5,0.2,1,0.2,1.6v6.4h-0.9v-6.4c0-1-0.2-1.7-0.6-2.2c-0.4-0.5-1-0.8-1.8-0.8c-0.3,0-0.7,0.1-1,0.2c-0.3,0.1-0.6,0.3-0.8,0.6
		s-0.4,0.6-0.6,0.9c-0.1,0.4-0.2,0.8-0.2,1.3v6.4h-1v-6.4c0-1-0.2-1.7-0.6-2.2c-0.4-0.5-1-0.8-1.7-0.8c-0.5,0-1,0.2-1.5,0.5
		c-0.5,0.3-0.9,0.8-1.2,1.3v7.5H141.4z"/>
	<path class="st1" d="M161.1,76.4c0.6,0,1.1,0.1,1.6,0.3s0.9,0.5,1.2,0.8s0.6,0.8,0.8,1.4s0.3,1.2,0.3,1.9c0,0.1,0,0.2-0.1,0.3
		c0,0.1-0.1,0.1-0.2,0.1h-7.2v0.2c0,0.7,0.1,1.4,0.3,2c0.2,0.6,0.4,1,0.7,1.4c0.3,0.4,0.7,0.7,1.2,0.9c0.5,0.2,1,0.3,1.5,0.3
		c0.5,0,0.9-0.1,1.3-0.2s0.7-0.2,0.9-0.4s0.4-0.3,0.6-0.4c0.1-0.1,0.3-0.2,0.3-0.2c0.1,0,0.2,0,0.2,0.1l0.3,0.3
		c-0.2,0.2-0.4,0.4-0.6,0.6c-0.3,0.2-0.6,0.3-0.9,0.4c-0.3,0.1-0.7,0.2-1,0.3c-0.4,0.1-0.7,0.1-1.1,0.1c-0.7,0-1.3-0.1-1.9-0.4
		c-0.6-0.2-1-0.6-1.4-1c-0.4-0.5-0.7-1-0.9-1.7c-0.2-0.7-0.3-1.4-0.3-2.3c0-0.7,0.1-1.4,0.3-2c0.2-0.6,0.5-1.1,0.9-1.6
		s0.9-0.8,1.4-1C159.7,76.5,160.4,76.4,161.1,76.4z M161.1,77.1c-0.5,0-1,0.1-1.4,0.2c-0.4,0.2-0.8,0.4-1.1,0.7
		c-0.3,0.3-0.5,0.7-0.7,1.1s-0.3,0.9-0.4,1.4h6.5c0-0.5-0.1-1-0.2-1.4s-0.4-0.8-0.6-1.1c-0.3-0.3-0.6-0.5-1-0.7
		C162,77.2,161.5,77.1,161.1,77.1z"/>
	<path class="st1" d="M167,85.7c0-0.1,0-0.2,0.1-0.4c0-0.1,0.1-0.2,0.2-0.3c0.1-0.1,0.2-0.2,0.3-0.2s0.2-0.1,0.4-0.1
		c0.1,0,0.2,0,0.4,0.1s0.2,0.1,0.3,0.2c0.1,0.1,0.1,0.2,0.2,0.3c0,0.1,0.1,0.2,0.1,0.4c0,0.1,0,0.3-0.1,0.4
		c-0.1,0.1-0.1,0.2-0.2,0.3c-0.1,0.1-0.2,0.1-0.3,0.2c-0.1,0-0.2,0.1-0.4,0.1c-0.3,0-0.5-0.1-0.7-0.3C167.1,86.2,167,86,167,85.7z"
		/>
	<path class="st1" d="M170.9,85.7c0-0.1,0-0.2,0.1-0.4c0-0.1,0.1-0.2,0.2-0.3c0.1-0.1,0.2-0.2,0.3-0.2s0.2-0.1,0.4-0.1
		c0.1,0,0.2,0,0.4,0.1s0.2,0.1,0.3,0.2c0.1,0.1,0.1,0.2,0.2,0.3c0,0.1,0.1,0.2,0.1,0.4c0,0.1,0,0.3-0.1,0.4
		c-0.1,0.1-0.1,0.2-0.2,0.3c-0.1,0.1-0.2,0.1-0.3,0.2c-0.1,0-0.2,0.1-0.4,0.1c-0.3,0-0.5-0.1-0.7-0.3C171,86.2,170.9,86,170.9,85.7z
		"/>
	<path class="st1" d="M174.9,85.7c0-0.1,0-0.2,0.1-0.4c0-0.1,0.1-0.2,0.2-0.3c0.1-0.1,0.2-0.2,0.3-0.2s0.2-0.1,0.4-0.1
		c0.1,0,0.2,0,0.4,0.1s0.2,0.1,0.3,0.2c0.1,0.1,0.1,0.2,0.2,0.3c0,0.1,0.1,0.2,0.1,0.4c0,0.1,0,0.3-0.1,0.4
		c-0.1,0.1-0.1,0.2-0.2,0.3c-0.1,0.1-0.2,0.1-0.3,0.2c-0.1,0-0.2,0.1-0.4,0.1c-0.3,0-0.5-0.1-0.7-0.3C175,86.2,174.9,86,174.9,85.7z
		"/>
</g>
<g>
	<path class="st1" d="M29.9,142.3v0.9h-7.5v5.7h6.2v0.8h-6.2v5.9h7.5v0.9h-8.5v-14.1H29.9z"/>
	<path class="st1" d="M32.8,156.5v-10h0.5c0.2,0,0.3,0.1,0.3,0.3l0.1,1.5c0.5-0.6,1-1,1.6-1.4c0.6-0.4,1.3-0.5,2-0.5
		c0.5,0,1,0.1,1.4,0.3c0.4,0.2,0.8,0.4,1,0.8s0.5,0.7,0.6,1.2s0.2,1,0.2,1.6v6.4h-0.9v-6.4c0-0.9-0.2-1.7-0.6-2.2
		c-0.4-0.5-1.1-0.8-2-0.8c-0.7,0-1.3,0.2-1.8,0.5c-0.6,0.3-1.1,0.8-1.5,1.4v7.5H32.8z"/>
	<path class="st1" d="M46.3,156.6c-0.7,0-1.2-0.2-1.6-0.6c-0.4-0.4-0.6-1-0.6-1.7v-6.8h-1.4c-0.1,0-0.1,0-0.2-0.1
		c0,0-0.1-0.1-0.1-0.2V147l1.7-0.1l0.2-3.6c0-0.1,0-0.1,0.1-0.2c0,0,0.1-0.1,0.2-0.1h0.4v3.8h3.1v0.7h-3.1v6.8c0,0.3,0,0.5,0.1,0.7
		c0.1,0.2,0.2,0.4,0.3,0.5c0.1,0.1,0.3,0.2,0.4,0.3s0.3,0.1,0.5,0.1c0.2,0,0.4,0,0.6-0.1c0.2-0.1,0.3-0.1,0.4-0.2
		c0.1-0.1,0.2-0.2,0.3-0.2s0.1-0.1,0.2-0.1c0.1,0,0.1,0,0.2,0.1l0.3,0.4c-0.3,0.3-0.6,0.5-1,0.7C47.1,156.6,46.7,156.6,46.3,156.6z"
		/>
	<path class="st1" d="M54.5,146.4c0.6,0,1.1,0.1,1.6,0.3s0.9,0.5,1.2,0.8s0.6,0.8,0.8,1.4s0.3,1.2,0.3,1.9c0,0.1,0,0.2-0.1,0.3
		c0,0.1-0.1,0.1-0.2,0.1h-7.2v0.2c0,0.7,0.1,1.4,0.3,2c0.2,0.6,0.4,1,0.7,1.4c0.3,0.4,0.7,0.7,1.2,0.9c0.5,0.2,1,0.3,1.5,0.3
		c0.5,0,0.9-0.1,1.3-0.2s0.7-0.2,0.9-0.4s0.4-0.3,0.6-0.4c0.1-0.1,0.3-0.2,0.3-0.2c0.1,0,0.2,0,0.2,0.1l0.3,0.3
		c-0.2,0.2-0.4,0.4-0.6,0.6c-0.3,0.2-0.6,0.3-0.9,0.4c-0.3,0.1-0.7,0.2-1,0.3c-0.4,0.1-0.7,0.1-1.1,0.1c-0.7,0-1.3-0.1-1.9-0.4
		c-0.6-0.2-1-0.6-1.4-1c-0.4-0.5-0.7-1-0.9-1.7c-0.2-0.7-0.3-1.4-0.3-2.3c0-0.7,0.1-1.4,0.3-2c0.2-0.6,0.5-1.1,0.9-1.6
		s0.9-0.8,1.4-1C53.1,146.5,53.8,146.4,54.5,146.4z M54.5,147.1c-0.5,0-1,0.1-1.4,0.2c-0.4,0.2-0.8,0.4-1.1,0.7
		c-0.3,0.3-0.5,0.7-0.7,1.1S51,150,51,150.5h6.5c0-0.5-0.1-1-0.2-1.4s-0.4-0.8-0.6-1.1c-0.3-0.3-0.6-0.5-1-0.7
		C55.4,147.2,54.9,147.1,54.5,147.1z"/>
	<path class="st1" d="M60.9,156.5v-10h0.5c0.1,0,0.2,0,0.2,0.1c0,0,0.1,0.1,0.1,0.2l0.1,2.1c0.3-0.8,0.7-1.4,1.3-1.9
		c0.5-0.5,1.2-0.7,2-0.7c0.3,0,0.6,0,0.8,0.1s0.5,0.2,0.7,0.3l-0.1,0.7c0,0.1-0.1,0.2-0.2,0.2c0,0-0.1,0-0.2,0
		c-0.1,0-0.2-0.1-0.3-0.1c-0.1,0-0.2-0.1-0.4-0.1c-0.2,0-0.3,0-0.5,0c-0.8,0-1.4,0.2-1.9,0.7c-0.5,0.5-0.9,1.1-1.2,2v6.5H60.9z"/>
	<path class="st1" d="M77.6,150.6v5.8h-1v-5.8l-5.2-8.3h0.9c0.1,0,0.2,0,0.2,0.1c0.1,0,0.1,0.1,0.2,0.2l4.1,6.5
		c0.1,0.2,0.2,0.3,0.2,0.4c0.1,0.1,0.1,0.3,0.2,0.4c0.1-0.1,0.1-0.3,0.2-0.4c0.1-0.1,0.1-0.3,0.2-0.4l4-6.5c0-0.1,0.1-0.1,0.1-0.2
		c0.1,0,0.1-0.1,0.2-0.1h0.9L77.6,150.6z"/>
	<path class="st1" d="M86.9,146.4c0.7,0,1.4,0.1,1.9,0.4c0.6,0.2,1,0.6,1.4,1s0.7,1,0.9,1.6c0.2,0.6,0.3,1.3,0.3,2.1
		s-0.1,1.5-0.3,2.1c-0.2,0.6-0.5,1.2-0.9,1.6c-0.4,0.4-0.9,0.8-1.4,1c-0.6,0.2-1.2,0.4-1.9,0.4c-0.7,0-1.4-0.1-1.9-0.4
		c-0.6-0.2-1-0.6-1.4-1c-0.4-0.4-0.7-1-0.9-1.6c-0.2-0.6-0.3-1.3-0.3-2.1s0.1-1.5,0.3-2.1c0.2-0.6,0.5-1.2,0.9-1.6s0.9-0.8,1.4-1
		C85.6,146.5,86.2,146.4,86.9,146.4z M86.9,155.9c0.6,0,1.1-0.1,1.6-0.3c0.4-0.2,0.8-0.5,1.1-0.9c0.3-0.4,0.5-0.8,0.7-1.4
		c0.1-0.5,0.2-1.1,0.2-1.8c0-0.7-0.1-1.3-0.2-1.8c-0.1-0.5-0.4-1-0.7-1.4c-0.3-0.4-0.7-0.7-1.1-0.9s-1-0.3-1.6-0.3
		c-0.6,0-1.1,0.1-1.6,0.3s-0.8,0.5-1.1,0.9c-0.3,0.4-0.5,0.8-0.7,1.4c-0.2,0.5-0.2,1.1-0.2,1.8c0,0.7,0.1,1.3,0.2,1.8
		c0.1,0.5,0.4,1,0.7,1.4c0.3,0.4,0.7,0.7,1.1,0.9C85.8,155.8,86.3,155.9,86.9,155.9z"/>
	<path class="st1" d="M94.7,146.5v6.4c0,0.9,0.2,1.7,0.6,2.2c0.4,0.5,1.1,0.8,2,0.8c0.6,0,1.3-0.2,1.8-0.5c0.6-0.3,1.1-0.8,1.5-1.4
		v-7.5h1v10H101c-0.2,0-0.3-0.1-0.3-0.3l-0.1-1.5c-0.5,0.6-1,1-1.6,1.4c-0.6,0.3-1.3,0.5-2,0.5c-0.6,0-1-0.1-1.5-0.3s-0.8-0.4-1-0.8
		c-0.3-0.3-0.5-0.7-0.6-1.2c-0.1-0.5-0.2-1-0.2-1.6v-6.4H94.7z"/>
	<path class="st1" d="M104.8,156.5v-10h0.5c0.1,0,0.2,0,0.2,0.1c0,0,0.1,0.1,0.1,0.2l0.1,2.1c0.3-0.8,0.7-1.4,1.3-1.9
		c0.5-0.5,1.2-0.7,2-0.7c0.3,0,0.6,0,0.8,0.1s0.5,0.2,0.7,0.3l-0.1,0.7c0,0.1-0.1,0.2-0.2,0.2c0,0-0.1,0-0.2,0
		c-0.1,0-0.2-0.1-0.3-0.1c-0.1,0-0.2-0.1-0.4-0.1c-0.2,0-0.3,0-0.5,0c-0.8,0-1.4,0.2-1.9,0.7c-0.5,0.5-0.9,1.1-1.2,2v6.5H104.8z"/>
	<path class="st1" d="M125.5,142.3v0.9h-7.5v5.7h6.2v0.8h-6.2v5.9h7.5v0.9h-8.5v-14.1H125.5z"/>
	<path class="st1" d="M128.4,156.5v-10h0.5c0.2,0,0.3,0.1,0.3,0.3l0.1,1.4c0.2-0.3,0.4-0.5,0.6-0.8c0.2-0.2,0.5-0.4,0.7-0.6
		c0.3-0.2,0.5-0.3,0.8-0.4c0.3-0.1,0.6-0.1,0.9-0.1c0.7,0,1.3,0.2,1.7,0.6c0.4,0.4,0.7,1,0.9,1.8c0.1-0.4,0.3-0.8,0.5-1.1
		c0.2-0.3,0.5-0.5,0.7-0.7s0.6-0.3,0.9-0.4s0.7-0.1,1-0.1c0.5,0,0.9,0.1,1.3,0.2c0.4,0.2,0.7,0.4,1,0.7c0.3,0.3,0.5,0.7,0.6,1.2
		c0.1,0.5,0.2,1,0.2,1.6v6.4h-0.9v-6.4c0-1-0.2-1.7-0.6-2.2c-0.4-0.5-1-0.8-1.8-0.8c-0.3,0-0.7,0.1-1,0.2c-0.3,0.1-0.6,0.3-0.8,0.6
		s-0.4,0.6-0.6,0.9c-0.1,0.4-0.2,0.8-0.2,1.3v6.4h-1v-6.4c0-1-0.2-1.7-0.6-2.2c-0.4-0.5-1-0.8-1.7-0.8c-0.5,0-1,0.2-1.5,0.5
		c-0.5,0.3-0.9,0.8-1.2,1.3v7.5H128.4z"/>
	<path class="st1" d="M150.7,156.5c-0.2,0-0.3-0.1-0.4-0.3l-0.1-1.3c-0.3,0.3-0.5,0.5-0.8,0.7s-0.6,0.4-0.8,0.5
		c-0.3,0.1-0.6,0.3-0.9,0.3c-0.3,0.1-0.7,0.1-1.1,0.1c-0.3,0-0.7-0.1-1-0.2c-0.3-0.1-0.6-0.3-0.9-0.5c-0.2-0.2-0.4-0.5-0.6-0.8
		c-0.1-0.3-0.2-0.7-0.2-1.2c0-0.4,0.1-0.8,0.4-1.2c0.2-0.4,0.6-0.7,1.1-0.9c0.5-0.3,1.2-0.5,2-0.6c0.8-0.2,1.8-0.3,2.9-0.3v-1
		c0-0.9-0.2-1.6-0.6-2.1c-0.4-0.5-1-0.7-1.8-0.7c-0.5,0-0.9,0.1-1.2,0.2c-0.3,0.1-0.6,0.3-0.9,0.4s-0.4,0.3-0.6,0.4
		c-0.1,0.1-0.3,0.2-0.4,0.2c-0.1,0-0.2-0.1-0.3-0.2l-0.2-0.3c0.5-0.5,1.1-0.9,1.6-1.2c0.6-0.3,1.2-0.4,2-0.4c0.5,0,1,0.1,1.4,0.3
		c0.4,0.2,0.7,0.4,1,0.7c0.3,0.3,0.5,0.7,0.6,1.1c0.1,0.4,0.2,1,0.2,1.5v6.5H150.7z M146.7,156c0.4,0,0.7,0,1.1-0.1
		c0.3-0.1,0.6-0.2,0.9-0.4c0.3-0.1,0.5-0.3,0.8-0.5c0.2-0.2,0.5-0.4,0.7-0.7v-2.6c-0.9,0-1.8,0.1-2.4,0.2c-0.7,0.1-1.2,0.3-1.7,0.5
		c-0.4,0.2-0.8,0.4-1,0.7c-0.2,0.3-0.3,0.6-0.3,0.9c0,0.3,0.1,0.6,0.2,0.9c0.1,0.2,0.3,0.4,0.4,0.6c0.2,0.2,0.4,0.3,0.6,0.3
		C146.1,155.9,146.4,156,146.7,156z"/>
	<path class="st1" d="M155.7,143.1c0,0.1,0,0.2-0.1,0.3c0,0.1-0.1,0.2-0.2,0.3s-0.2,0.1-0.3,0.2c-0.1,0-0.2,0.1-0.3,0.1
		s-0.2,0-0.3-0.1c-0.1,0-0.2-0.1-0.3-0.2c-0.1-0.1-0.1-0.2-0.2-0.3c0-0.1-0.1-0.2-0.1-0.3s0-0.2,0.1-0.3c0-0.1,0.1-0.2,0.2-0.3
		c0.1-0.1,0.2-0.1,0.3-0.2c0.1,0,0.2-0.1,0.3-0.1s0.2,0,0.3,0.1c0.1,0,0.2,0.1,0.3,0.2c0.1,0.1,0.1,0.2,0.2,0.3
		C155.7,142.9,155.7,143,155.7,143.1z M155.3,146.5v10h-1v-10H155.3z"/>
	<path class="st1" d="M160,141.9v14.5h-1v-14.5H160z"/>
	<path class="st1" d="M163,155.7c0-0.1,0-0.2,0.1-0.4c0-0.1,0.1-0.2,0.2-0.3c0.1-0.1,0.2-0.2,0.3-0.2s0.2-0.1,0.4-0.1
		c0.1,0,0.2,0,0.4,0.1s0.2,0.1,0.3,0.2c0.1,0.1,0.1,0.2,0.2,0.3c0,0.1,0.1,0.2,0.1,0.4c0,0.1,0,0.3-0.1,0.4
		c-0.1,0.1-0.1,0.2-0.2,0.3c-0.1,0.1-0.2,0.1-0.3,0.2c-0.1,0-0.2,0.1-0.4,0.1c-0.3,0-0.5-0.1-0.7-0.3C163,156.2,163,156,163,155.7z"
		/>
	<path class="st1" d="M166.9,155.7c0-0.1,0-0.2,0.1-0.4c0-0.1,0.1-0.2,0.2-0.3c0.1-0.1,0.2-0.2,0.3-0.2s0.2-0.1,0.4-0.1
		c0.1,0,0.2,0,0.4,0.1s0.2,0.1,0.3,0.2c0.1,0.1,0.1,0.2,0.2,0.3c0,0.1,0.1,0.2,0.1,0.4c0,0.1,0,0.3-0.1,0.4
		c-0.1,0.1-0.1,0.2-0.2,0.3c-0.1,0.1-0.2,0.1-0.3,0.2c-0.1,0-0.2,0.1-0.4,0.1c-0.3,0-0.5-0.1-0.7-0.3
		C167,156.2,166.9,156,166.9,155.7z"/>
	<path class="st1" d="M170.9,155.7c0-0.1,0-0.2,0.1-0.4c0-0.1,0.1-0.2,0.2-0.3c0.1-0.1,0.2-0.2,0.3-0.2s0.2-0.1,0.4-0.1
		c0.1,0,0.2,0,0.4,0.1s0.2,0.1,0.3,0.2c0.1,0.1,0.1,0.2,0.2,0.3c0,0.1,0.1,0.2,0.1,0.4c0,0.1,0,0.3-0.1,0.4
		c-0.1,0.1-0.1,0.2-0.2,0.3c-0.1,0.1-0.2,0.1-0.3,0.2c-0.1,0-0.2,0.1-0.4,0.1c-0.3,0-0.5-0.1-0.7-0.3
		C170.9,156.2,170.9,156,170.9,155.7z"/>
</g>
</svg>
