<?xml version="1.0" encoding="utf-8"?>
<!-- Generator: Adobe Illustrator 19.1.1, SVG Export Plug-In . SVG Version: 6.00 Build 0)  -->
<svg version="1.1" id="Layer_1" xmlns="http://www.w3.org/2000/svg" xmlns:xlink="http://www.w3.org/1999/xlink" x="0px" y="0px"
	 viewBox="0 0 572.1 219.5" style="enable-background:new 0 0 572.1 219.5;" xml:space="preserve">
<style type="text/css">
	.st0{fill:#FF4E38;}
	.st1{fill:#B3B3B3;}
	.st2{fill:#5CB6C2;}
</style>
<g>
	<path class="st0" d="M17.3,81.7h-5.1V14h5.1V81.7z"/>
	<path class="st0" d="M92.4,64.9c0.2-0.5,0.4-1,0.6-1.5c0.2-0.5,0.5-1,0.7-1.4l27.4-47.1c0.3-0.4,0.5-0.7,0.8-0.8
		c0.3-0.1,0.6-0.1,1.1-0.1h3.5v67.7H122V24c0-0.8,0-1.7,0.1-2.6L94.7,68.7c-0.5,0.8-1.1,1.2-2,1.2H92c-0.8,0-1.5-0.4-2-1.2
		L61.8,21.3c0.1,0.9,0.1,1.8,0.1,2.7v57.7h-4.4V14H61c0.5,0,0.8,0,1.1,0.1c0.3,0.1,0.5,0.4,0.8,0.8L91.1,62
		C91.6,62.9,92,63.9,92.4,64.9z"/>
	<path class="st0" d="M217.4,81.7h-3.9c-0.5,0-0.8-0.1-1.1-0.4s-0.5-0.5-0.7-0.9l-8.2-19.7h-34.3L161,80.4c-0.1,0.4-0.4,0.7-0.7,0.9
		c-0.3,0.3-0.7,0.4-1.2,0.4h-3.8L183.8,14h5L217.4,81.7z M170.7,57.1H202l-14.2-34.2c-0.2-0.5-0.5-1.2-0.7-1.8
		c-0.2-0.7-0.5-1.4-0.7-2.2c-0.2,0.8-0.5,1.5-0.7,2.2c-0.2,0.7-0.5,1.3-0.7,1.9L170.7,57.1z"/>
	<path class="st0" d="M274.7,78.5c2.4,0,4.6-0.1,6.6-0.4c2-0.2,3.8-0.6,5.5-1.1c1.7-0.5,3.3-1.1,4.8-1.7c1.5-0.7,3.1-1.5,4.6-2.3
		V54.8h-13.4c-0.4,0-0.7-0.1-0.9-0.3c-0.2-0.2-0.4-0.5-0.4-0.8V51h19.3v24.1c-1.7,1.2-3.5,2.2-5.4,3.2s-3.9,1.7-6,2.3
		s-4.4,1.1-6.9,1.4c-2.5,0.3-5.2,0.5-8.1,0.5c-5,0-9.6-0.8-13.8-2.5c-4.2-1.6-7.7-4-10.7-7c-3-3-5.3-6.7-6.9-10.9
		c-1.6-4.3-2.5-9-2.5-14.3s0.8-10,2.5-14.2c1.6-4.3,4-7.9,7-10.9c3-3,6.7-5.3,11-7c4.3-1.6,9.2-2.5,14.5-2.5c2.7,0,5.1,0.2,7.4,0.5
		c2.3,0.4,4.3,0.9,6.3,1.6c1.9,0.7,3.7,1.5,5.4,2.5c1.7,1,3.3,2.2,4.8,3.5l-1.3,2.1c-0.3,0.5-0.7,0.7-1.2,0.7
		c-0.3,0-0.6-0.1-0.8-0.2c-0.5-0.2-1.2-0.6-2.1-1.3c-0.9-0.7-2.2-1.4-3.8-2.2c-1.6-0.8-3.6-1.5-6-2.1c-2.4-0.6-5.3-0.9-8.7-0.9
		c-4.5,0-8.6,0.7-12.3,2.1c-3.6,1.4-6.8,3.4-9.3,6c-2.6,2.6-4.6,5.8-6,9.6c-1.4,3.8-2.1,8-2.1,12.7c0,4.8,0.7,9.1,2.1,12.9
		c1.4,3.8,3.4,7,5.9,9.6c2.5,2.6,5.6,4.7,9.2,6.1C266.4,77.8,270.4,78.5,274.7,78.5z"/>
	<path class="st0" d="M343.1,81.7H338V14h5.1V81.7z"/>
	<path class="st0" d="M387,14.2c0.3,0.1,0.5,0.4,0.8,0.7L433,73.6c-0.1-1-0.1-1.9-0.1-2.8V14h4.4v67.7h-2.4c-0.8,0-1.4-0.3-1.8-1
		L387.7,22c0.1,1,0.1,1.9,0.1,2.7v57h-4.4V14h2.5C386.4,14,386.7,14.1,387,14.2z"/>
	<path class="st0" d="M517.5,14v4.1h-36.7v27.4h30.6v4h-30.6v28.2h36.7v4.1h-41.8V14H517.5z"/>
	<path class="st1" d="M14.4,121.8v12.6h-2.3v-12.6L0.6,103.9h2c0.2,0,0.4,0,0.5,0.1c0.1,0.1,0.2,0.2,0.4,0.4l9,14
		c0.2,0.3,0.4,0.7,0.5,1c0.1,0.3,0.3,0.6,0.4,0.9c0.1-0.3,0.3-0.6,0.4-0.9c0.1-0.3,0.3-0.6,0.5-1l9-14c0.1-0.2,0.2-0.3,0.3-0.4
		c0.1-0.1,0.3-0.2,0.5-0.2h2L14.4,121.8z"/>
	<path class="st1" d="M65.4,119.1c0,2.4-0.4,4.5-1.1,6.4s-1.7,3.6-3.1,4.9c-1.3,1.4-2.9,2.4-4.7,3.1s-3.9,1.1-6.1,1.1
		c-2.2,0-4.2-0.4-6.1-1.1s-3.4-1.8-4.7-3.1c-1.3-1.4-2.3-3-3.1-4.9s-1.1-4.1-1.1-6.4c0-2.3,0.4-4.5,1.1-6.4s1.8-3.6,3.1-4.9
		c1.3-1.4,2.9-2.4,4.7-3.2c1.8-0.7,3.9-1.1,6.1-1.1c2.2,0,4.3,0.4,6.1,1.1c1.8,0.7,3.4,1.8,4.7,3.2s2.3,3,3.1,4.9
		S65.4,116.8,65.4,119.1z M63.1,119.1c0-2.1-0.3-4-0.9-5.7c-0.6-1.7-1.5-3.1-2.6-4.3c-1.1-1.2-2.4-2.1-4-2.7
		c-1.6-0.6-3.3-0.9-5.2-0.9c-1.9,0-3.6,0.3-5.1,0.9c-1.5,0.6-2.9,1.5-4,2.7c-1.1,1.2-2,2.6-2.6,4.3c-0.6,1.7-0.9,3.6-0.9,5.7
		c0,2.1,0.3,4.1,0.9,5.7c0.6,1.7,1.5,3.1,2.6,4.3c1.1,1.2,2.4,2.1,4,2.7c1.5,0.6,3.2,0.9,5.1,0.9c1.9,0,3.6-0.3,5.2-0.9
		c1.6-0.6,2.9-1.5,4-2.7c1.1-1.2,2-2.6,2.6-4.3C62.8,123.2,63.1,121.3,63.1,119.1z"/>
	<path class="st1" d="M92.4,132.8c1.5,0,2.9-0.3,4-0.8c1.2-0.5,2.2-1.2,3-2.1c0.8-0.9,1.5-2,1.9-3.2c0.4-1.2,0.7-2.6,0.7-4v-18.8
		h2.3v18.8c0,1.7-0.3,3.2-0.8,4.7c-0.5,1.5-1.3,2.7-2.4,3.8s-2.3,1.9-3.7,2.6c-1.5,0.6-3.1,0.9-5,0.9s-3.5-0.3-5-0.9
		c-1.5-0.6-2.7-1.5-3.7-2.6s-1.8-2.4-2.4-3.8c-0.5-1.5-0.8-3-0.8-4.7v-18.8h2.3v18.8c0,1.4,0.2,2.7,0.7,4c0.4,1.2,1.1,2.3,1.9,3.2
		c0.8,0.9,1.8,1.6,3,2.1C89.6,132.6,90.9,132.8,92.4,132.8z"/>
	<path class="st1" d="M124.3,120.6v13.8H122v-30.5h8c3.6,0,6.3,0.7,8.1,2c1.8,1.4,2.7,3.3,2.7,6c0,1.2-0.2,2.2-0.6,3.2
		c-0.4,1-1,1.8-1.8,2.5c-0.8,0.7-1.7,1.3-2.8,1.8s-2.3,0.8-3.7,0.9c0.4,0.2,0.7,0.5,1,0.9l10.8,13.2h-2c-0.2,0-0.4,0-0.6-0.1
		c-0.2-0.1-0.3-0.2-0.5-0.4l-10-12.4c-0.3-0.3-0.5-0.5-0.8-0.7c-0.3-0.1-0.7-0.2-1.3-0.2H124.3z M124.3,119h5.5
		c1.4,0,2.6-0.2,3.7-0.5c1.1-0.3,2-0.8,2.8-1.4c0.8-0.6,1.3-1.3,1.7-2.2c0.4-0.8,0.6-1.8,0.6-2.9c0-2.2-0.7-3.8-2.2-4.8
		c-1.5-1-3.6-1.6-6.4-1.6h-5.7V119z"/>
	<path class="st1" d="M175.5,104c0.1,0.1,0.2,0.2,0.4,0.3l20.3,26.4c0-0.4-0.1-0.8-0.1-1.2v-25.6h2v30.5H197c-0.3,0-0.6-0.1-0.8-0.4
		l-20.4-26.5c0,0.4,0.1,0.8,0.1,1.2v25.7h-2v-30.5h1.1C175.2,103.9,175.3,103.9,175.5,104z"/>
	<path class="st1" d="M234.2,103.9v1.8h-16.5v12.3h13.8v1.8h-13.8v12.7h16.5v1.8h-18.8v-30.5H234.2z"/>
	<path class="st1" d="M245.3,103.9h1.9c0.4,0,0.7,0.2,0.8,0.6l7.9,25.1c0.1,0.3,0.2,0.6,0.2,0.9c0.1,0.3,0.1,0.7,0.2,1
		c0.1-0.4,0.1-0.7,0.2-1c0.1-0.3,0.2-0.6,0.3-0.9l8.9-25.1c0.1-0.2,0.2-0.3,0.3-0.4c0.1-0.1,0.3-0.2,0.5-0.2h0.6
		c0.2,0,0.4,0.1,0.5,0.2c0.1,0.1,0.2,0.2,0.3,0.4l8.9,25.1c0.1,0.3,0.2,0.6,0.3,0.9c0.1,0.3,0.2,0.7,0.2,1c0.1-0.3,0.1-0.7,0.2-1
		c0.1-0.3,0.1-0.6,0.2-0.9l7.9-25.1c0-0.2,0.1-0.3,0.3-0.4c0.2-0.1,0.3-0.2,0.5-0.2h1.7l-9.9,30.5h-2l-9.3-26.5
		c-0.1-0.3-0.2-0.7-0.3-1.1c-0.1,0.4-0.2,0.8-0.3,1.1l-9.3,26.5h-2L245.3,103.9z"/>
	<path class="st1" d="M313.6,103.9h1.8c0.2,0,0.4,0.1,0.5,0.2c0.1,0.1,0.2,0.2,0.3,0.4l10.7,25.3c0.3,0.7,0.5,1.4,0.7,2.1
		c0.2-0.8,0.4-1.5,0.6-2.1l10.7-25.3c0.1-0.2,0.2-0.3,0.3-0.4c0.1-0.1,0.3-0.2,0.5-0.2h1.8l-13,30.5h-2L313.6,103.9z"/>
	<path class="st1" d="M357.6,134.4h-2.3v-30.5h2.3V134.4z"/>
	<path class="st1" d="M394.5,103.9v1.8H378v12.3h13.8v1.8H378v12.7h16.5v1.8h-18.8v-30.5H394.5z"/>
	<path class="st1" d="M405.6,103.9h1.9c0.4,0,0.7,0.2,0.8,0.6l7.9,25.1c0.1,0.3,0.2,0.6,0.2,0.9c0.1,0.3,0.1,0.7,0.2,1
		c0.1-0.4,0.1-0.7,0.2-1c0.1-0.3,0.2-0.6,0.3-0.9l8.9-25.1c0.1-0.2,0.2-0.3,0.3-0.4c0.1-0.1,0.3-0.2,0.5-0.2h0.6
		c0.2,0,0.4,0.1,0.5,0.2c0.1,0.1,0.2,0.2,0.3,0.4l8.9,25.1c0.1,0.3,0.2,0.6,0.3,0.9c0.1,0.3,0.2,0.7,0.2,1c0.1-0.3,0.1-0.7,0.2-1
		c0.1-0.3,0.1-0.6,0.2-0.9l7.9-25.1c0-0.2,0.1-0.3,0.3-0.4c0.2-0.1,0.3-0.2,0.5-0.2h1.7l-9.9,30.5h-2l-9.3-26.5
		c-0.1-0.3-0.2-0.7-0.3-1.1c-0.1,0.4-0.2,0.8-0.3,1.1l-9.3,26.5h-2L405.6,103.9z"/>
	<path class="st1" d="M506.2,119.1c0,2.4-0.4,4.5-1.1,6.4s-1.7,3.6-3.1,4.9c-1.3,1.4-2.9,2.4-4.7,3.1c-1.8,0.7-3.9,1.1-6.1,1.1
		c-2.2,0-4.2-0.4-6.1-1.1s-3.4-1.8-4.7-3.1c-1.3-1.4-2.3-3-3.1-4.9s-1.1-4.1-1.1-6.4c0-2.3,0.4-4.5,1.1-6.4s1.8-3.6,3.1-4.9
		c1.3-1.4,2.9-2.4,4.7-3.2c1.8-0.7,3.9-1.1,6.1-1.1c2.2,0,4.3,0.4,6.1,1.1c1.8,0.7,3.4,1.8,4.7,3.2s2.3,3,3.1,4.9
		S506.2,116.8,506.2,119.1z M503.9,119.1c0-2.1-0.3-4-0.9-5.7c-0.6-1.7-1.5-3.1-2.6-4.3c-1.1-1.2-2.4-2.1-4-2.7
		c-1.6-0.6-3.3-0.9-5.2-0.9c-1.9,0-3.6,0.3-5.1,0.9c-1.5,0.6-2.9,1.5-4,2.7c-1.1,1.2-2,2.6-2.6,4.3c-0.6,1.7-0.9,3.6-0.9,5.7
		c0,2.1,0.3,4.1,0.9,5.7c0.6,1.7,1.5,3.1,2.6,4.3c1.1,1.2,2.4,2.1,4,2.7c1.5,0.6,3.3,0.9,5.1,0.9c1.9,0,3.6-0.3,5.2-0.9
		c1.6-0.6,2.9-1.5,4-2.7c1.1-1.2,2-2.6,2.6-4.3C503.5,123.2,503.9,121.3,503.9,119.1z"/>
	<path class="st1" d="M540.4,103.9v1.8h-16.5v12.8h14.3v1.8h-14.3v14h-2.3v-30.5H540.4z"/>
	<path class="st2" d="M12.6,185.7v20.5H8.9v-50.8h13.5c6.1,0,10.8,1.3,13.9,3.9c3.1,2.6,4.7,6.3,4.7,11.2c0,2.2-0.4,4.3-1.3,6.1
		c-0.9,1.9-2.1,3.5-3.7,4.8c-1.6,1.4-3.5,2.4-5.8,3.2c-2.3,0.8-4.9,1.1-7.8,1.1H12.6z M12.6,182.8h9.7c2.3,0,4.4-0.3,6.2-0.9
		c1.8-0.6,3.4-1.5,4.6-2.6s2.2-2.4,2.9-3.9c0.7-1.5,1-3.1,1-4.9c0-3.9-1.2-6.9-3.7-9c-2.5-2.1-6.2-3.2-11.1-3.2h-9.7V182.8z"/>
	<path class="st2" d="M100,206.2H97c-0.3,0-0.6-0.1-0.9-0.3s-0.4-0.4-0.5-0.7l-6.2-14.8H63.8l-6.1,14.8c-0.1,0.3-0.3,0.5-0.5,0.7
		c-0.2,0.2-0.5,0.3-0.9,0.3h-2.9l21.4-50.8h3.8L100,206.2z M64.9,187.7h23.4l-10.7-25.7c-0.2-0.4-0.3-0.9-0.5-1.4s-0.3-1.1-0.5-1.6
		c-0.2,0.6-0.3,1.1-0.5,1.6c-0.2,0.5-0.3,1-0.5,1.4L64.9,187.7z"/>
	<path class="st2" d="M126.4,183.2v23h-3.8v-50.8H136c6,0,10.5,1.1,13.5,3.4c3,2.3,4.5,5.6,4.5,10c0,1.9-0.3,3.7-1,5.3
		c-0.7,1.6-1.7,3-3,4.2c-1.3,1.2-2.9,2.2-4.7,3c-1.8,0.8-3.9,1.3-6.2,1.5c0.6,0.4,1.1,0.8,1.6,1.4l18,22h-3.3c-0.4,0-0.7-0.1-1-0.2
		c-0.3-0.1-0.6-0.4-0.8-0.7l-16.7-20.6c-0.4-0.5-0.9-0.9-1.3-1.1c-0.5-0.2-1.2-0.3-2.2-0.3H126.4z M126.4,180.5h9.1
		c2.3,0,4.4-0.3,6.2-0.8c1.8-0.5,3.4-1.3,4.7-2.3c1.3-1,2.2-2.2,2.9-3.6c0.7-1.4,1-3,1-4.8c0-3.6-1.2-6.3-3.7-8
		c-2.4-1.7-6-2.6-10.6-2.6h-9.6V180.5z"/>
	<path class="st2" d="M220.9,206.2h-2.9c-0.3,0-0.6-0.1-0.9-0.3s-0.4-0.4-0.5-0.7l-6.2-14.8h-25.7l-6.1,14.8
		c-0.1,0.3-0.3,0.5-0.5,0.7c-0.2,0.2-0.5,0.3-0.9,0.3h-2.9l21.4-50.8h3.8L220.9,206.2z M185.9,187.7h23.4l-10.7-25.7
		c-0.2-0.4-0.3-0.9-0.5-1.4s-0.3-1.1-0.5-1.6c-0.2,0.6-0.3,1.1-0.5,1.6c-0.2,0.5-0.3,1-0.5,1.4L185.9,187.7z"/>
	<path class="st2" d="M286.5,180.8c0,3.9-0.6,7.5-1.8,10.6c-1.2,3.1-2.9,5.8-5.1,8c-2.2,2.2-4.8,3.9-7.9,5.1
		c-3.1,1.2-6.4,1.8-10.2,1.8h-19.1v-50.8h19.1c3.7,0,7.1,0.6,10.2,1.8c3.1,1.2,5.7,2.9,7.9,5.1c2.2,2.2,3.9,4.9,5.1,8
		C285.9,173.4,286.5,176.9,286.5,180.8z M282.6,180.8c0-3.5-0.5-6.7-1.5-9.5c-1-2.8-2.4-5.1-4.3-7c-1.8-1.9-4-3.4-6.6-4.4
		c-2.6-1-5.5-1.5-8.6-1.5h-15.3v44.8h15.3c3.2,0,6-0.5,8.6-1.5c2.6-1,4.8-2.5,6.6-4.4c1.8-1.9,3.3-4.3,4.3-7
		C282,187.5,282.6,184.3,282.6,180.8z"/>
	<path class="st2" d="M317.1,206.2h-3.8v-50.8h3.8V206.2z"/>
	<path class="st2" d="M372.7,161.6c-0.2,0.4-0.5,0.6-1,0.6c-0.3,0-0.7-0.2-1.2-0.7c-0.5-0.4-1.2-0.9-2.1-1.5s-1.9-1-3.2-1.5
		c-1.3-0.5-2.9-0.7-4.8-0.7s-3.6,0.3-5,0.8c-1.4,0.5-2.7,1.2-3.6,2.2c-1,0.9-1.7,2-2.2,3.2c-0.5,1.2-0.8,2.5-0.8,3.8
		c0,1.7,0.4,3.1,1.1,4.3s1.7,2.1,3,2.9c1.2,0.8,2.6,1.5,4.2,2c1.6,0.5,3.2,1.1,4.8,1.6c1.7,0.5,3.3,1.1,4.8,1.7
		c1.6,0.6,3,1.4,4.2,2.4c1.2,1,2.2,2.1,3,3.5c0.8,1.4,1.1,3.1,1.1,5.2c0,2.1-0.4,4.1-1.1,6c-0.8,1.9-1.8,3.5-3.3,4.9
		c-1.4,1.4-3.2,2.5-5.3,3.3c-2.1,0.8-4.4,1.2-7.1,1.2c-3.5,0-6.4-0.6-8.9-1.8c-2.5-1.2-4.7-2.8-6.5-4.9l1-1.6c0.3-0.4,0.6-0.5,1-0.5
		c0.2,0,0.5,0.1,0.9,0.4c0.3,0.3,0.8,0.6,1.3,1.1c0.5,0.4,1.1,0.9,1.8,1.4c0.7,0.5,1.5,0.9,2.4,1.4c0.9,0.4,2,0.8,3.1,1.1
		s2.5,0.4,4,0.4c2.1,0,3.9-0.3,5.6-0.9s3-1.4,4.1-2.5c1.1-1.1,2-2.3,2.6-3.8c0.6-1.4,0.9-3,0.9-4.6c0-1.8-0.4-3.3-1.1-4.4
		c-0.8-1.2-1.7-2.1-3-2.9c-1.2-0.8-2.6-1.4-4.2-2s-3.2-1-4.8-1.5c-1.7-0.5-3.3-1.1-4.8-1.7c-1.6-0.6-3-1.4-4.2-2.4
		c-1.2-1-2.2-2.2-3-3.6c-0.8-1.4-1.1-3.3-1.1-5.4c0-1.7,0.3-3.3,1-4.9c0.7-1.6,1.6-3,2.9-4.2c1.3-1.2,2.9-2.2,4.8-2.9
		c1.9-0.7,4-1.1,6.5-1.1c2.7,0,5.2,0.4,7.3,1.3s4.1,2.1,5.9,3.8L372.7,161.6z"/>
	<path class="st2" d="M430.6,155.4v3.1h-27.5V179H426v3h-22.9v21.2h27.5v3.1h-31.3v-50.8H430.6z"/>
</g>
</svg>
