<?xml version="1.0" encoding="utf-8"?>
<!-- Generator: Adobe Illustrator 19.1.1, SVG Export Plug-In . SVG Version: 6.00 Build 0)  -->
<svg version="1.1" id="Layer_1" xmlns="http://www.w3.org/2000/svg" xmlns:xlink="http://www.w3.org/1999/xlink" x="0px" y="0px"
	 viewBox="0 0 533.4 219.5" style="enable-background:new 0 0 533.4 219.5;" xml:space="preserve">
<style type="text/css">
	.st0{fill:#FF4E38;}
	.st1{fill:#B3B3B3;}
	.st2{fill:#5CB6C2;}
</style>
<g>
	<path class="st0" d="M15.4,77.6h33.1v4.2H10.4V14h5V77.6z"/>
	<path class="st0" d="M104.3,78.2c3.4,0,6.3-0.6,9-1.7c2.6-1.1,4.9-2.7,6.7-4.7c1.8-2,3.2-4.4,4.2-7.1c1-2.7,1.5-5.7,1.5-8.8V14h5
		v41.9c0,3.7-0.6,7.2-1.8,10.5c-1.2,3.2-3,6.1-5.2,8.5c-2.3,2.4-5.1,4.3-8.3,5.7c-3.3,1.4-6.9,2.1-11,2.1s-7.7-0.7-11-2.1
		c-3.3-1.4-6-3.3-8.3-5.7c-2.3-2.4-4-5.2-5.2-8.5c-1.2-3.2-1.8-6.7-1.8-10.5V14h5.1v41.8c0,3.2,0.5,6.1,1.5,8.8
		c1,2.7,2.4,5.1,4.2,7.1c1.8,2,4.1,3.6,6.7,4.7C97.9,77.7,100.9,78.2,104.3,78.2z"/>
	<path class="st0" d="M184.2,47l-24.1-33h5c0.5,0,0.8,0.1,1,0.3c0.2,0.2,0.4,0.4,0.6,0.7l21.2,29.7c0.1-0.3,0.2-0.5,0.3-0.7
		c0.1-0.2,0.3-0.5,0.4-0.7L209.1,15c0.2-0.3,0.4-0.5,0.6-0.7c0.2-0.2,0.5-0.3,0.8-0.3h4.8l-24.1,32.7l25.1,35h-5
		c-0.5,0-0.8-0.1-1.1-0.4c-0.3-0.3-0.5-0.5-0.6-0.8l-22-31.2c-0.1,0.5-0.4,0.9-0.7,1.4l-21.6,29.8c-0.2,0.3-0.5,0.6-0.8,0.8
		c-0.3,0.3-0.6,0.4-1,0.4H159L184.2,47z"/>
	<path class="st0" d="M271.2,78.2c3.4,0,6.3-0.6,9-1.7c2.6-1.1,4.9-2.7,6.7-4.7c1.8-2,3.2-4.4,4.2-7.1c1-2.7,1.5-5.7,1.5-8.8V14h5
		v41.9c0,3.7-0.6,7.2-1.8,10.5c-1.2,3.2-3,6.1-5.2,8.5c-2.3,2.4-5.1,4.3-8.3,5.7c-3.3,1.4-6.9,2.1-11,2.1s-7.7-0.7-11-2.1
		c-3.3-1.4-6-3.3-8.3-5.7c-2.3-2.4-4-5.2-5.2-8.5c-1.2-3.2-1.8-6.7-1.8-10.5V14h5.1v41.8c0,3.2,0.5,6.1,1.5,8.8
		c1,2.7,2.4,5.1,4.2,7.1c1.8,2,4.1,3.6,6.7,4.7C264.8,77.7,267.8,78.2,271.2,78.2z"/>
	<path class="st0" d="M341.9,51.1v30.6h-5V14h17.8c8.1,0,14.1,1.5,18,4.5c4,3,6,7.4,6,13.3c0,2.6-0.5,4.9-1.4,7.1
		c-0.9,2.1-2.2,4-4,5.6c-1.7,1.6-3.8,2.9-6.2,4c-2.4,1-5.2,1.7-8.2,2c0.8,0.5,1.5,1.1,2.1,1.9l24,29.3h-4.4c-0.5,0-1-0.1-1.4-0.3
		s-0.7-0.5-1.1-1L355.8,53c-0.6-0.7-1.2-1.2-1.8-1.5s-1.6-0.4-3-0.4H341.9z M341.9,47.5h12.1c3.1,0,5.9-0.4,8.3-1.1
		c2.4-0.7,4.5-1.7,6.2-3.1c1.7-1.3,3-3,3.9-4.8c0.9-1.9,1.3-4,1.3-6.4c0-4.8-1.6-8.4-4.9-10.7c-3.3-2.3-8-3.5-14.2-3.5h-12.8V47.5z"
		/>
	<path class="st0" d="M437.1,53.8v28H432v-28L406.3,14h4.4c0.5,0,0.8,0.1,1.1,0.3c0.3,0.2,0.5,0.5,0.8,0.9l20,31.1
		c0.5,0.7,0.9,1.4,1.2,2.1c0.3,0.7,0.6,1.4,0.9,2.1c0.3-0.7,0.6-1.4,0.9-2.1c0.3-0.7,0.7-1.4,1.2-2.1l19.9-31.1
		c0.2-0.4,0.4-0.6,0.7-0.9c0.3-0.2,0.7-0.3,1.1-0.3h4.4L437.1,53.8z"/>
	<path class="st1" d="M7.8,134.4H5.5v-30.5h2.3V134.4z"/>
	<path class="st1" d="M41.1,107.6c-0.1,0.2-0.3,0.4-0.6,0.4c-0.2,0-0.4-0.1-0.7-0.4s-0.7-0.6-1.2-0.9c-0.5-0.3-1.2-0.6-1.9-0.9
		c-0.8-0.3-1.7-0.4-2.9-0.4s-2.1,0.2-3,0.5c-0.9,0.3-1.6,0.7-2.2,1.3s-1,1.2-1.3,1.9s-0.5,1.5-0.5,2.3c0,1,0.2,1.9,0.7,2.6
		s1,1.2,1.8,1.7c0.7,0.5,1.6,0.9,2.5,1.2c0.9,0.3,1.9,0.6,2.9,1c1,0.3,2,0.7,2.9,1c0.9,0.4,1.8,0.9,2.5,1.4s1.3,1.3,1.8,2.1
		c0.5,0.8,0.7,1.9,0.7,3.1c0,1.3-0.2,2.5-0.7,3.6c-0.5,1.1-1.1,2.1-2,2.9c-0.9,0.8-1.9,1.5-3.1,2c-1.2,0.5-2.7,0.7-4.3,0.7
		c-2.1,0-3.9-0.4-5.3-1.1c-1.5-0.7-2.8-1.7-3.9-2.9l0.6-0.9c0.2-0.2,0.4-0.3,0.6-0.3c0.1,0,0.3,0.1,0.5,0.3c0.2,0.2,0.5,0.4,0.8,0.6
		c0.3,0.3,0.7,0.5,1.1,0.8c0.4,0.3,0.9,0.6,1.4,0.8c0.5,0.3,1.2,0.5,1.9,0.6c0.7,0.2,1.5,0.3,2.4,0.3c1.2,0,2.4-0.2,3.3-0.5
		c1-0.4,1.8-0.9,2.5-1.5c0.7-0.6,1.2-1.4,1.5-2.3c0.4-0.9,0.5-1.8,0.5-2.8c0-1.1-0.2-2-0.7-2.7c-0.5-0.7-1-1.3-1.8-1.7
		c-0.7-0.5-1.6-0.9-2.5-1.2c-0.9-0.3-1.9-0.6-2.9-0.9c-1-0.3-2-0.6-2.9-1c-0.9-0.4-1.8-0.9-2.5-1.4c-0.7-0.6-1.3-1.3-1.8-2.2
		c-0.5-0.9-0.7-2-0.7-3.3c0-1,0.2-2,0.6-3c0.4-0.9,1-1.8,1.8-2.5c0.8-0.7,1.7-1.3,2.9-1.7c1.1-0.4,2.4-0.7,3.9-0.7
		c1.6,0,3.1,0.3,4.4,0.8c1.3,0.5,2.5,1.3,3.5,2.3L41.1,107.6z"/>
	<path class="st1" d="M101.6,119.1c0,2.4-0.4,4.5-1.1,6.4s-1.7,3.6-3.1,4.9c-1.3,1.4-2.9,2.4-4.7,3.1s-3.9,1.1-6.1,1.1
		c-2.2,0-4.2-0.4-6.1-1.1s-3.4-1.8-4.7-3.1c-1.3-1.4-2.3-3-3.1-4.9s-1.1-4.1-1.1-6.4c0-2.3,0.4-4.5,1.1-6.4s1.8-3.6,3.1-4.9
		c1.3-1.4,2.9-2.4,4.7-3.2c1.8-0.7,3.9-1.1,6.1-1.1c2.2,0,4.3,0.4,6.1,1.1c1.8,0.7,3.4,1.8,4.7,3.2s2.3,3,3.1,4.9
		S101.6,116.8,101.6,119.1z M99.2,119.1c0-2.1-0.3-4-0.9-5.7c-0.6-1.7-1.5-3.1-2.6-4.3c-1.1-1.2-2.4-2.1-4-2.7
		c-1.6-0.6-3.3-0.9-5.2-0.9c-1.9,0-3.6,0.3-5.1,0.9c-1.5,0.6-2.9,1.5-4,2.7c-1.1,1.2-2,2.6-2.6,4.3c-0.6,1.7-0.9,3.6-0.9,5.7
		c0,2.1,0.3,4.1,0.9,5.7c0.6,1.7,1.5,3.1,2.6,4.3c1.1,1.2,2.4,2.1,4,2.7c1.5,0.6,3.2,0.9,5.1,0.9c1.9,0,3.6-0.3,5.2-0.9
		c1.6-0.6,2.9-1.5,4-2.7c1.1-1.2,2-2.6,2.6-4.3C98.9,123.2,99.2,121.3,99.2,119.1z"/>
	<path class="st1" d="M118.6,104c0.1,0.1,0.2,0.2,0.4,0.3l20.3,26.4c0-0.4-0.1-0.8-0.1-1.2v-25.6h2v30.5h-1.1
		c-0.3,0-0.6-0.1-0.8-0.4l-20.4-26.5c0,0.4,0.1,0.8,0.1,1.2v25.7h-2v-30.5h1.1C118.3,103.9,118.4,103.9,118.6,104z"/>
	<path class="st1" d="M160.8,132.5h14.9v1.9h-17.1v-30.5h2.3V132.5z"/>
	<path class="st1" d="M194.6,121.8v12.6h-2.3v-12.6l-11.6-17.9h2c0.2,0,0.4,0,0.5,0.1c0.1,0.1,0.2,0.2,0.4,0.4l9,14
		c0.2,0.3,0.4,0.7,0.5,1c0.1,0.3,0.3,0.6,0.4,0.9c0.1-0.3,0.3-0.6,0.4-0.9c0.1-0.3,0.3-0.6,0.5-1l9-14c0.1-0.2,0.2-0.3,0.3-0.4
		c0.1-0.1,0.3-0.2,0.5-0.2h2L194.6,121.8z"/>
	<path class="st1" d="M256.5,103.9v1.9h-11v28.6h-2.3v-28.6h-11.1v-1.9H256.5z"/>
	<path class="st1" d="M294.1,134.4h-2.3v-14.6h-19.7v14.6h-2.3v-30.5h2.3v14.2h19.7v-14.2h2.3V134.4z"/>
	<path class="st1" d="M330.2,103.9v1.8h-16.5v12.3h13.8v1.8h-13.8v12.7h16.5v1.8h-18.8v-30.5H330.2z"/>
	<path class="st2" d="M7.8,206.2v-50.8h15c3,0,5.6,0.3,7.7,0.9c2.2,0.6,4,1.4,5.4,2.5c1.4,1.1,2.5,2.5,3.2,4.1
		c0.7,1.6,1.1,3.4,1.1,5.5c0,1.3-0.2,2.6-0.7,3.9c-0.5,1.2-1.2,2.4-2.1,3.4c-0.9,1.1-2,2-3.3,2.7c-1.3,0.8-2.8,1.4-4.5,1.8
		c4.1,0.6,7.3,1.9,9.5,4c2.2,2.1,3.3,4.8,3.3,8.2c0,2.2-0.4,4.1-1.2,5.8c-0.8,1.7-1.9,3.2-3.4,4.4c-1.5,1.2-3.4,2.1-5.5,2.7
		c-2.2,0.6-4.7,1-7.5,1H7.8z M11.5,179.2h11.3c2.4,0,4.5-0.3,6.2-0.9c1.7-0.6,3.1-1.4,4.2-2.4c1.1-1,1.9-2.1,2.4-3.3
		c0.5-1.2,0.8-2.5,0.8-3.8c0-3.4-1.1-6-3.3-7.8c-2.2-1.8-5.7-2.6-10.3-2.6H11.5V179.2z M11.5,181.9v21.4h13.1c4.6,0,8.1-1,10.4-2.9
		s3.5-4.6,3.5-8.1c0-1.6-0.3-3-0.9-4.3c-0.6-1.3-1.5-2.4-2.7-3.3c-1.2-0.9-2.6-1.6-4.4-2.1c-1.7-0.5-3.7-0.7-5.9-0.7H11.5z"/>
	<path class="st2" d="M99.8,155.4v3.1H72.3V179h22.9v3H72.3v21.2h27.5v3.1H68.5v-50.8H99.8z"/>
	<path class="st2" d="M147.9,203.8c1.8,0,3.4-0.1,4.9-0.3s2.9-0.4,4.1-0.8c1.3-0.4,2.5-0.8,3.6-1.3s2.3-1.1,3.5-1.7V186H154
		c-0.3,0-0.5-0.1-0.7-0.3c-0.2-0.2-0.3-0.4-0.3-0.6v-2h14.5v18.1c-1.3,0.9-2.7,1.7-4.1,2.4c-1.4,0.7-2.9,1.3-4.5,1.7
		c-1.6,0.5-3.3,0.8-5.2,1.1c-1.8,0.3-3.9,0.4-6.1,0.4c-3.8,0-7.2-0.6-10.3-1.8c-3.1-1.2-5.8-3-8-5.2c-2.2-2.3-4-5-5.2-8.2
		c-1.2-3.2-1.8-6.8-1.8-10.7s0.6-7.5,1.8-10.7c1.2-3.2,3-5.9,5.2-8.2c2.3-2.3,5-4,8.3-5.2c3.2-1.2,6.9-1.8,10.9-1.8
		c2,0,3.8,0.1,5.5,0.4c1.7,0.3,3.3,0.7,4.7,1.2c1.5,0.5,2.8,1.1,4.1,1.9s2.5,1.6,3.6,2.6l-1,1.6c-0.2,0.4-0.5,0.5-0.9,0.5
		c-0.2,0-0.4,0-0.6-0.1c-0.4-0.1-0.9-0.5-1.6-1s-1.7-1.1-2.8-1.7c-1.2-0.6-2.7-1.1-4.5-1.5c-1.8-0.5-4-0.7-6.5-0.7
		c-3.4,0-6.5,0.5-9.2,1.6c-2.7,1.1-5.1,2.6-7,4.5c-1.9,2-3.4,4.4-4.5,7.2s-1.6,6-1.6,9.5c0,3.6,0.5,6.8,1.6,9.7
		c1.1,2.8,2.5,5.3,4.5,7.2c1.9,2,4.2,3.5,6.9,4.5C141.8,203.3,144.7,203.8,147.9,203.8z"/>
	<path class="st2" d="M199.3,206.2h-3.8v-50.8h3.8V206.2z"/>
	<path class="st2" d="M232.2,155.5c0.2,0.1,0.4,0.3,0.6,0.6l33.9,44c-0.1-0.7-0.1-1.4-0.1-2.1v-42.6h3.3v50.8h-1.8
		c-0.6,0-1-0.2-1.4-0.7l-34-44.1c0.1,0.7,0.1,1.4,0.1,2v42.8h-3.3v-50.8h1.8C231.7,155.4,232,155.4,232.2,155.5z"/>
	<path class="st2" d="M301.4,155.5c0.2,0.1,0.4,0.3,0.6,0.6l33.9,44c-0.1-0.7-0.1-1.4-0.1-2.1v-42.6h3.3v50.8h-1.8
		c-0.6,0-1-0.2-1.4-0.7l-34-44.1c0.1,0.7,0.1,1.4,0.1,2v42.8h-3.3v-50.8h1.8C300.9,155.4,301.2,155.4,301.4,155.5z"/>
	<path class="st2" d="M373.1,206.2h-3.8v-50.8h3.8V206.2z"/>
	<path class="st2" d="M406,155.5c0.2,0.1,0.4,0.3,0.6,0.6l33.9,44c-0.1-0.7-0.1-1.4-0.1-2.1v-42.6h3.3v50.8h-1.8
		c-0.6,0-1-0.2-1.4-0.7l-34-44.1c0.1,0.7,0.1,1.4,0.1,2v42.8h-3.3v-50.8h1.8C405.5,155.4,405.8,155.4,406,155.5z"/>
	<path class="st2" d="M495,203.8c1.8,0,3.4-0.1,4.9-0.3s2.9-0.4,4.1-0.8s2.5-0.8,3.6-1.3s2.3-1.1,3.5-1.7V186h-10.1
		c-0.3,0-0.5-0.1-0.7-0.3c-0.2-0.2-0.3-0.4-0.3-0.6v-2h14.5v18.1c-1.3,0.9-2.7,1.7-4.1,2.4c-1.4,0.7-2.9,1.3-4.5,1.7
		c-1.6,0.5-3.3,0.8-5.2,1.1c-1.8,0.3-3.9,0.4-6.1,0.4c-3.8,0-7.2-0.6-10.3-1.8c-3.1-1.2-5.8-3-8-5.2c-2.2-2.3-4-5-5.2-8.2
		c-1.2-3.2-1.8-6.8-1.8-10.7s0.6-7.5,1.8-10.7c1.2-3.2,3-5.9,5.2-8.2s5-4,8.3-5.2c3.2-1.2,6.9-1.8,10.9-1.8c2,0,3.8,0.1,5.5,0.4
		c1.7,0.3,3.3,0.7,4.7,1.2c1.5,0.5,2.8,1.1,4.1,1.9s2.5,1.6,3.6,2.6l-1,1.6c-0.2,0.4-0.5,0.5-0.9,0.5c-0.2,0-0.4,0-0.6-0.1
		c-0.4-0.1-0.9-0.5-1.6-1s-1.7-1.1-2.8-1.7c-1.2-0.6-2.7-1.1-4.5-1.5c-1.8-0.5-4-0.7-6.5-0.7c-3.4,0-6.5,0.5-9.2,1.6
		c-2.7,1.1-5.1,2.6-7,4.5c-1.9,2-3.4,4.4-4.5,7.2c-1,2.8-1.6,6-1.6,9.5c0,3.6,0.5,6.8,1.6,9.7c1.1,2.8,2.5,5.3,4.5,7.2
		c1.9,2,4.2,3.5,6.9,4.5C488.8,203.3,491.8,203.8,495,203.8z"/>
</g>
</svg>
