<?xml version="1.0" encoding="utf-8"?>
<!-- Generator: Adobe Illustrator 19.1.1, SVG Export Plug-In . SVG Version: 6.00 Build 0)  -->
<svg version="1.1" id="Layer_1" xmlns="http://www.w3.org/2000/svg" xmlns:xlink="http://www.w3.org/1999/xlink" x="0px" y="0px"
	 viewBox="0 0 533.4 219.5" style="enable-background:new 0 0 533.4 219.5;" xml:space="preserve">
<style type="text/css">
	.st0{fill:#FF4E38;}
	.st1{fill:#B3B3B3;}
	.st2{fill:#5CB6C2;}
</style>
<g>
	<path class="st0" d="M16.9,51.1v30.6h-5V14h17.8c8,0,14.1,1.5,18,4.5c4,3,6,7.4,6,13.3c0,2.6-0.5,4.9-1.4,7.1c-0.9,2.1-2.2,4-4,5.6
		c-1.7,1.6-3.8,2.9-6.2,4c-2.4,1-5.2,1.7-8.2,2c0.8,0.5,1.5,1.1,2.1,1.9l24,29.3h-4.4c-0.5,0-1-0.1-1.4-0.3c-0.4-0.2-0.7-0.5-1.1-1
		L30.8,53c-0.6-0.7-1.2-1.2-1.8-1.5s-1.6-0.4-3-0.4H16.9z M16.9,47.5H29c3.1,0,5.9-0.4,8.3-1.1c2.4-0.7,4.5-1.7,6.2-3.1
		c1.7-1.3,3-3,3.9-4.8c0.9-1.9,1.3-4,1.3-6.4c0-4.8-1.6-8.4-4.9-10.7c-3.3-2.3-8-3.5-14.2-3.5H16.9V47.5z"/>
	<path class="st0" d="M132.1,14v4.1H95.4v27.4h30.6v4H95.4v28.2h36.7v4.1H90.3V14H132.1z"/>
	<path class="st0" d="M171.3,77.6h33.1v4.2h-38.1V14h5V77.6z"/>
	<path class="st0" d="M286.9,81.7H283c-0.5,0-0.8-0.1-1.1-0.4s-0.5-0.5-0.7-0.9L273,60.8h-34.3l-8.2,19.7c-0.1,0.4-0.4,0.7-0.7,0.9
		c-0.3,0.3-0.7,0.4-1.2,0.4h-3.8L253.4,14h5L286.9,81.7z M240.3,57.1h31.2l-14.2-34.2c-0.2-0.5-0.5-1.2-0.7-1.8
		c-0.2-0.7-0.5-1.4-0.7-2.2c-0.2,0.8-0.5,1.5-0.7,2.2c-0.2,0.7-0.5,1.3-0.7,1.9L240.3,57.1z"/>
	<path class="st0" d="M331.4,47l-24.1-33h5c0.5,0,0.8,0.1,1,0.3c0.2,0.2,0.4,0.4,0.6,0.7l21.2,29.7c0.1-0.3,0.2-0.5,0.3-0.7
		s0.3-0.5,0.4-0.7L356.3,15c0.2-0.3,0.4-0.5,0.6-0.7c0.2-0.2,0.5-0.3,0.8-0.3h4.8l-24.1,32.7l25.1,35h-5c-0.5,0-0.8-0.1-1.1-0.4
		c-0.3-0.3-0.5-0.5-0.6-0.8l-22-31.2c-0.1,0.5-0.4,0.9-0.7,1.4l-21.6,29.8c-0.2,0.3-0.5,0.6-0.8,0.8c-0.3,0.3-0.6,0.4-1,0.4h-4.6
		L331.4,47z"/>
	<path class="st1" d="M28.3,134.4h-1.8c-0.2,0-0.4-0.1-0.5-0.2c-0.1-0.1-0.2-0.2-0.3-0.4L22,125H6.6l-3.7,8.9
		c-0.1,0.2-0.2,0.3-0.3,0.4c-0.1,0.1-0.3,0.2-0.5,0.2H0.3l12.8-30.5h2.3L28.3,134.4z M7.3,123.3h14.1l-6.4-15.4
		c-0.1-0.2-0.2-0.5-0.3-0.8s-0.2-0.6-0.3-1c-0.1,0.3-0.2,0.7-0.3,1s-0.2,0.6-0.3,0.9L7.3,123.3z"/>
	<path class="st1" d="M42.8,104c0.1,0.1,0.2,0.2,0.4,0.3l20.3,26.4c0-0.4-0.1-0.8-0.1-1.2v-25.6h2v30.5h-1.1c-0.3,0-0.6-0.1-0.8-0.4
		l-20.4-26.5c0,0.4,0.1,0.8,0.1,1.2v25.7h-2v-30.5h1.1C42.5,103.9,42.7,103.9,42.8,104z"/>
	<path class="st1" d="M109.2,119.1c0,2.4-0.4,4.5-1.1,6.4c-0.7,1.9-1.7,3.5-3.1,4.8s-2.9,2.3-4.7,3c-1.8,0.7-3.9,1.1-6.1,1.1H82.7
		v-30.5h11.4c2.2,0,4.3,0.4,6.1,1.1c1.8,0.7,3.4,1.7,4.7,3s2.3,2.9,3.1,4.8C108.8,114.7,109.2,116.8,109.2,119.1z M106.8,119.1
		c0-2.1-0.3-4-0.9-5.7c-0.6-1.7-1.5-3.1-2.6-4.2c-1.1-1.1-2.4-2-4-2.6c-1.6-0.6-3.3-0.9-5.2-0.9H85v26.9h9.2c1.9,0,3.6-0.3,5.2-0.9
		c1.6-0.6,2.9-1.5,4-2.6c1.1-1.1,2-2.6,2.6-4.2C106.5,123.2,106.8,121.3,106.8,119.1z"/>
	<path class="st1" d="M159.8,103.9v1.8h-16.5v12.3H157v1.8h-13.8v12.7h16.5v1.8H141v-30.5H159.8z"/>
	<path class="st1" d="M176.8,104c0.1,0.1,0.2,0.2,0.4,0.3l20.3,26.4c0-0.4-0.1-0.8-0.1-1.2v-25.6h2v30.5h-1.1
		c-0.3,0-0.6-0.1-0.8-0.4l-20.4-26.5c0,0.4,0.1,0.8,0.1,1.2v25.7h-2v-30.5h1.1C176.5,103.9,176.7,103.9,176.8,104z"/>
	<path class="st1" d="M227.5,124.2c0,1.7-0.2,3.2-0.7,4.5c-0.4,1.3-1.1,2.4-1.9,3.3c-0.8,0.9-1.8,1.6-2.9,2
		c-1.2,0.5-2.5,0.7-3.9,0.7c-0.7,0-1.3-0.1-2-0.2c-0.7-0.1-1.4-0.3-2.1-0.5c0-0.2,0.1-0.4,0.1-0.6c0-0.2,0-0.4,0.1-0.6
		c0-0.1,0.1-0.2,0.2-0.3c0.1-0.1,0.2-0.2,0.4-0.2c0.1,0,0.3,0,0.5,0.1c0.2,0.1,0.4,0.1,0.7,0.2c0.3,0.1,0.6,0.1,0.9,0.2
		c0.3,0,0.7,0.1,1.2,0.1c1.1,0,2.1-0.2,3-0.5c0.9-0.3,1.7-0.9,2.3-1.6s1.1-1.6,1.5-2.7c0.3-1.1,0.5-2.4,0.5-3.8v-20.4h2.3V124.2z"/>
	<path class="st1" d="M272.8,119.1c0,2.4-0.4,4.5-1.1,6.4s-1.7,3.6-3.1,4.9c-1.3,1.4-2.9,2.4-4.7,3.1s-3.9,1.1-6.1,1.1
		c-2.2,0-4.2-0.4-6.1-1.1s-3.4-1.8-4.7-3.1c-1.3-1.4-2.3-3-3.1-4.9s-1.1-4.1-1.1-6.4c0-2.3,0.4-4.5,1.1-6.4s1.8-3.6,3.1-4.9
		c1.3-1.4,2.9-2.4,4.7-3.2c1.8-0.7,3.9-1.1,6.1-1.1c2.2,0,4.3,0.4,6.1,1.1c1.8,0.7,3.4,1.8,4.7,3.2s2.3,3,3.1,4.9
		S272.8,116.8,272.8,119.1z M270.5,119.1c0-2.1-0.3-4-0.9-5.7c-0.6-1.7-1.5-3.1-2.6-4.3c-1.1-1.2-2.4-2.1-4-2.7
		c-1.6-0.6-3.3-0.9-5.2-0.9c-1.9,0-3.6,0.3-5.1,0.9c-1.5,0.6-2.9,1.5-4,2.7c-1.1,1.2-2,2.6-2.6,4.3c-0.6,1.7-0.9,3.6-0.9,5.7
		c0,2.1,0.3,4.1,0.9,5.7c0.6,1.7,1.5,3.1,2.6,4.3c1.1,1.2,2.4,2.1,4,2.7c1.5,0.6,3.2,0.9,5.1,0.9c1.9,0,3.6-0.3,5.2-0.9
		c1.6-0.6,2.9-1.5,4-2.7c1.1-1.2,2-2.6,2.6-4.3C270.2,123.2,270.5,121.3,270.5,119.1z"/>
	<path class="st1" d="M296.2,121.8v12.6h-2.3v-12.6l-11.6-17.9h2c0.2,0,0.4,0,0.5,0.1c0.1,0.1,0.2,0.2,0.4,0.4l9,14
		c0.2,0.3,0.4,0.7,0.5,1c0.1,0.3,0.3,0.6,0.4,0.9c0.1-0.3,0.3-0.6,0.4-0.9c0.1-0.3,0.3-0.6,0.5-1l9-14c0.1-0.2,0.2-0.3,0.3-0.4
		s0.3-0.2,0.5-0.2h2L296.2,121.8z"/>
	<path class="st1" d="M358,103.9v1.9h-11v28.6h-2.3v-28.6h-11.1v-1.9H358z"/>
	<path class="st1" d="M395.7,134.4h-2.3v-14.6h-19.7v14.6h-2.3v-30.5h2.3v14.2h19.7v-14.2h2.3V134.4z"/>
	<path class="st1" d="M431.8,103.9v1.8h-16.5v12.3H429v1.8h-13.8v12.7h16.5v1.8H413v-30.5H431.8z"/>
	<path class="st2" d="M11.5,203.1h24.8v3.1H7.8v-50.8h3.8V203.1z"/>
	<path class="st2" d="M64.1,206.2h-3.8v-50.8h3.8V206.2z"/>
	<path class="st2" d="M125.6,155.4v3.1H98.1v21.4h23.8v3.1H98.1v23.3h-3.8v-50.8H125.6z"/>
	<path class="st2" d="M181.2,155.4v3.1h-27.5V179h22.9v3h-22.9v21.2h27.5v3.1h-31.3v-50.8H181.2z"/>
	<path class="st2" d="M232.2,161.6c-0.2,0.4-0.5,0.6-1,0.6c-0.3,0-0.7-0.2-1.2-0.7c-0.5-0.4-1.2-0.9-2.1-1.5s-1.9-1-3.2-1.5
		c-1.3-0.5-2.9-0.7-4.8-0.7c-1.9,0-3.6,0.3-5,0.8c-1.4,0.5-2.7,1.2-3.6,2.2c-1,0.9-1.7,2-2.2,3.2c-0.5,1.2-0.8,2.5-0.8,3.8
		c0,1.7,0.4,3.1,1.1,4.3s1.7,2.1,3,2.9c1.2,0.8,2.6,1.5,4.2,2c1.6,0.5,3.2,1.1,4.8,1.6s3.3,1.1,4.8,1.7c1.6,0.6,3,1.4,4.2,2.4
		c1.2,1,2.2,2.1,3,3.5s1.1,3.1,1.1,5.2c0,2.1-0.4,4.1-1.1,6c-0.8,1.9-1.8,3.5-3.3,4.9c-1.4,1.4-3.2,2.5-5.2,3.3
		c-2.1,0.8-4.4,1.2-7.1,1.2c-3.5,0-6.4-0.6-8.9-1.8c-2.5-1.2-4.7-2.8-6.5-4.9l1-1.6c0.3-0.4,0.6-0.5,1-0.5c0.2,0,0.5,0.1,0.9,0.4
		s0.8,0.6,1.3,1.1c0.5,0.4,1.1,0.9,1.8,1.4s1.5,0.9,2.4,1.4c0.9,0.4,2,0.8,3.1,1.1s2.5,0.4,4,0.4c2.1,0,3.9-0.3,5.6-0.9
		c1.6-0.6,3-1.4,4.1-2.5c1.1-1.1,2-2.3,2.6-3.8c0.6-1.4,0.9-3,0.9-4.6c0-1.8-0.4-3.3-1.1-4.4c-0.8-1.2-1.7-2.1-3-2.9
		c-1.2-0.8-2.6-1.4-4.2-2s-3.2-1-4.8-1.5s-3.3-1.1-4.8-1.7c-1.6-0.6-3-1.4-4.2-2.4c-1.2-1-2.2-2.2-3-3.6c-0.8-1.4-1.1-3.3-1.1-5.4
		c0-1.7,0.3-3.3,1-4.9s1.6-3,2.9-4.2c1.3-1.2,2.9-2.2,4.8-2.9c1.9-0.7,4-1.1,6.5-1.1c2.7,0,5.2,0.4,7.3,1.3c2.2,0.8,4.1,2.1,5.9,3.8
		L232.2,161.6z"/>
	<path class="st2" d="M293,155.4v3.1h-18.4v47.7h-3.8v-47.7h-18.5v-3.1H293z"/>
	<path class="st2" d="M331.6,185.2v21h-3.8v-21l-19.3-29.8h3.3c0.3,0,0.6,0.1,0.8,0.2c0.2,0.2,0.4,0.4,0.6,0.7l15,23.3
		c0.3,0.6,0.6,1.1,0.9,1.6c0.2,0.5,0.5,1,0.7,1.6c0.2-0.5,0.4-1,0.7-1.6c0.2-0.5,0.5-1,0.9-1.6l14.9-23.3c0.1-0.3,0.3-0.5,0.6-0.6
		c0.2-0.2,0.5-0.3,0.8-0.3h3.3L331.6,185.2z"/>
	<path class="st2" d="M376.7,203.1h24.8v3.1H373v-50.8h3.8V203.1z"/>
	<path class="st2" d="M455.4,155.4v3.1h-27.5V179h22.9v3h-22.9v21.2h27.5v3.1h-31.3v-50.8H455.4z"/>
</g>
</svg>
