<?xml version="1.0" encoding="utf-8"?>
<!-- Generator: Adobe Illustrator 19.1.1, SVG Export Plug-In . SVG Version: 6.00 Build 0)  -->
<svg version="1.1" id="Layer_1" xmlns="http://www.w3.org/2000/svg" xmlns:xlink="http://www.w3.org/1999/xlink" x="0px" y="0px"
	 viewBox="0 0 533.4 219.5" style="enable-background:new 0 0 533.4 219.5;" xml:space="preserve">
<style type="text/css">
	.st0{fill:#FF4E38;}
	.st1{fill:#B3B3B3;}
	.st2{fill:#5CB6C2;}
</style>
<g>
	<path class="st0" d="M16.9,54.5v27.3h-5V14h18c8.2,0,14.4,1.7,18.5,5.2c4.2,3.5,6.2,8.4,6.2,14.9c0,3-0.6,5.7-1.7,8.2
		c-1.1,2.5-2.8,4.6-4.9,6.4c-2.1,1.8-4.7,3.2-7.8,4.2s-6.5,1.5-10.4,1.5H16.9z M16.9,50.5h13c3.1,0,5.8-0.4,8.3-1.2
		c2.4-0.8,4.5-2,6.2-3.4c1.7-1.5,3-3.2,3.9-5.2c0.9-2,1.4-4.2,1.4-6.5c0-5.2-1.7-9.2-5-12c-3.3-2.8-8.2-4.2-14.8-4.2h-13V50.5z"/>
	<path class="st0" d="M91.6,77.6h33.1v4.2H86.6V14h5V77.6z"/>
	<path class="st0" d="M207.2,81.7h-3.9c-0.5,0-0.8-0.1-1.1-0.4s-0.5-0.5-0.7-0.9l-8.2-19.7H159l-8.2,19.7c-0.1,0.4-0.4,0.7-0.7,0.9
		c-0.3,0.3-0.7,0.4-1.2,0.4h-3.8L173.7,14h5L207.2,81.7z M160.6,57.1h31.2l-14.2-34.2c-0.2-0.5-0.5-1.2-0.7-1.8
		c-0.2-0.7-0.5-1.4-0.7-2.2c-0.2,0.8-0.5,1.5-0.7,2.2c-0.2,0.7-0.5,1.3-0.7,1.9L160.6,57.1z"/>
	<path class="st0" d="M239.6,14.2c0.3,0.1,0.5,0.4,0.8,0.7l45.1,58.7c-0.1-1-0.1-1.9-0.1-2.8V14h4.4v67.7h-2.4c-0.8,0-1.4-0.3-1.8-1
		L240.3,22c0.1,1,0.1,1.9,0.1,2.7v57H236V14h2.5C239,14,239.3,14.1,239.6,14.2z"/>
	<path class="st0" d="M362.1,22.2c-0.3,0.5-0.7,0.8-1.3,0.8c-0.4,0-1-0.3-1.7-0.9s-1.6-1.2-2.7-2c-1.2-0.7-2.6-1.4-4.3-2
		s-3.9-0.9-6.4-0.9c-2.5,0-4.8,0.4-6.7,1.1c-1.9,0.7-3.5,1.7-4.8,2.9s-2.3,2.6-3,4.2c-0.7,1.6-1,3.3-1,5c0,2.3,0.5,4.2,1.5,5.7
		c1,1.5,2.3,2.8,4,3.8c1.6,1.1,3.5,1.9,5.6,2.7s4.2,1.4,6.4,2.1c2.2,0.7,4.4,1.5,6.4,2.3c2.1,0.8,4,1.9,5.6,3.2c1.6,1.3,3,2.8,4,4.7
		c1,1.9,1.5,4.2,1.5,7c0,2.8-0.5,5.5-1.5,8c-1,2.5-2.5,4.7-4.4,6.5c-1.9,1.9-4.2,3.3-7,4.4c-2.8,1.1-5.9,1.6-9.5,1.6
		c-4.6,0-8.6-0.8-11.9-2.4c-3.3-1.6-6.2-3.7-8.7-6.5l1.4-2.1c0.4-0.5,0.9-0.7,1.4-0.7c0.3,0,0.7,0.2,1.1,0.6c0.5,0.4,1,0.9,1.7,1.4
		c0.7,0.6,1.4,1.2,2.4,1.8c0.9,0.7,2,1.3,3.2,1.8c1.2,0.6,2.6,1,4.2,1.4c1.6,0.4,3.4,0.6,5.4,0.6c2.8,0,5.2-0.4,7.4-1.2
		c2.2-0.8,4-1.9,5.5-3.3c1.5-1.4,2.6-3.1,3.4-5c0.8-1.9,1.2-4,1.2-6.2c0-2.4-0.5-4.4-1.5-5.9c-1-1.5-2.3-2.8-4-3.9s-3.5-1.9-5.6-2.6
		s-4.2-1.4-6.4-2.1c-2.2-0.7-4.4-1.4-6.4-2.3c-2.1-0.8-4-1.9-5.6-3.2c-1.6-1.3-3-2.9-4-4.8s-1.5-4.3-1.5-7.3c0-2.3,0.4-4.5,1.3-6.6
		s2.2-4,3.9-5.6c1.7-1.6,3.8-2.9,6.3-3.9c2.5-1,5.4-1.5,8.6-1.5c3.6,0,6.9,0.6,9.7,1.7s5.5,2.8,7.9,5.1L362.1,22.2z"/>
	<path class="st1" d="M25.2,103.9v1.9h-11v28.6h-2.3v-28.6H0.8v-1.9H25.2z"/>
	<path class="st1" d="M62.8,134.4h-2.3v-14.6H40.9v14.6h-2.3v-30.5h2.3v14.2h19.7v-14.2h2.3V134.4z"/>
	<path class="st1" d="M103.7,134.4H102c-0.2,0-0.4-0.1-0.5-0.2c-0.1-0.1-0.2-0.2-0.3-0.4l-3.7-8.9H82l-3.7,8.9
		c-0.1,0.2-0.2,0.3-0.3,0.4c-0.1,0.1-0.3,0.2-0.5,0.2h-1.7l12.8-30.5h2.3L103.7,134.4z M82.7,123.3h14.1l-6.4-15.4
		c-0.1-0.2-0.2-0.5-0.3-0.8s-0.2-0.6-0.3-1c-0.1,0.3-0.2,0.7-0.3,1s-0.2,0.6-0.3,0.9L82.7,123.3z"/>
	<path class="st1" d="M134.6,103.9v1.9h-11v28.6h-2.3v-28.6h-11.1v-1.9H134.6z"/>
	<path class="st1" d="M188.2,134.4h-1.8c-0.2,0-0.4-0.1-0.5-0.2c-0.1-0.1-0.2-0.2-0.3-0.4l-3.7-8.9h-15.4l-3.7,8.9
		c-0.1,0.2-0.2,0.3-0.3,0.4c-0.1,0.1-0.3,0.2-0.5,0.2h-1.7l12.8-30.5h2.3L188.2,134.4z M167.2,123.3h14.1l-6.4-15.4
		c-0.1-0.2-0.2-0.5-0.3-0.8s-0.2-0.6-0.3-1c-0.1,0.3-0.2,0.7-0.3,1s-0.2,0.6-0.3,0.9L167.2,123.3z"/>
	<path class="st1" d="M204.1,120.6v13.8h-2.3v-30.5h8c3.6,0,6.3,0.7,8.1,2c1.8,1.4,2.7,3.3,2.7,6c0,1.2-0.2,2.2-0.6,3.2
		c-0.4,1-1,1.8-1.8,2.5c-0.8,0.7-1.7,1.3-2.8,1.8s-2.3,0.8-3.7,0.9c0.4,0.2,0.7,0.5,1,0.9l10.8,13.2h-2c-0.2,0-0.4,0-0.6-0.1
		c-0.2-0.1-0.3-0.2-0.5-0.4l-10-12.4c-0.3-0.3-0.5-0.5-0.8-0.7c-0.3-0.1-0.7-0.2-1.3-0.2H204.1z M204.1,119h5.5
		c1.4,0,2.6-0.2,3.7-0.5c1.1-0.3,2-0.8,2.8-1.4c0.8-0.6,1.3-1.3,1.7-2.2c0.4-0.8,0.6-1.8,0.6-2.9c0-2.2-0.7-3.8-2.2-4.8
		c-1.5-1-3.6-1.6-6.4-1.6h-5.7V119z"/>
	<path class="st1" d="M255.9,103.9v1.8h-16.5v12.3h13.8v1.8h-13.8v12.7h16.5v1.8h-18.8v-30.5H255.9z"/>
	<path class="st1" d="M303,107.6c-0.1,0.2-0.3,0.4-0.6,0.4c-0.2,0-0.4-0.1-0.7-0.4c-0.3-0.3-0.7-0.6-1.2-0.9
		c-0.5-0.3-1.2-0.6-1.9-0.9c-0.8-0.3-1.7-0.4-2.9-0.4s-2.1,0.2-3,0.5c-0.9,0.3-1.6,0.7-2.2,1.3s-1,1.2-1.3,1.9
		c-0.3,0.7-0.5,1.5-0.5,2.3c0,1,0.2,1.9,0.7,2.6s1,1.2,1.8,1.7c0.7,0.5,1.6,0.9,2.5,1.2c0.9,0.3,1.9,0.6,2.9,1c1,0.3,2,0.7,2.9,1
		c0.9,0.4,1.8,0.9,2.5,1.4s1.3,1.3,1.8,2.1c0.5,0.8,0.7,1.9,0.7,3.1c0,1.3-0.2,2.5-0.7,3.6c-0.5,1.1-1.1,2.1-2,2.9
		c-0.9,0.8-1.9,1.5-3.2,2c-1.2,0.5-2.7,0.7-4.3,0.7c-2.1,0-3.9-0.4-5.3-1.1c-1.5-0.7-2.8-1.7-3.9-2.9l0.6-0.9
		c0.2-0.2,0.4-0.3,0.6-0.3c0.1,0,0.3,0.1,0.5,0.3c0.2,0.2,0.5,0.4,0.8,0.6c0.3,0.3,0.7,0.5,1.1,0.8c0.4,0.3,0.9,0.6,1.4,0.8
		c0.5,0.3,1.2,0.5,1.9,0.6c0.7,0.2,1.5,0.3,2.4,0.3c1.2,0,2.4-0.2,3.3-0.5c1-0.4,1.8-0.9,2.5-1.5s1.2-1.4,1.5-2.3
		c0.4-0.9,0.5-1.8,0.5-2.8c0-1.1-0.2-2-0.7-2.7c-0.5-0.7-1-1.3-1.8-1.7s-1.6-0.9-2.5-1.2c-0.9-0.3-1.9-0.6-2.9-0.9
		c-1-0.3-2-0.6-2.9-1s-1.8-0.9-2.5-1.4c-0.7-0.6-1.3-1.3-1.8-2.2c-0.5-0.9-0.7-2-0.7-3.3c0-1,0.2-2,0.6-3c0.4-0.9,1-1.8,1.8-2.5
		c0.8-0.7,1.7-1.3,2.9-1.7c1.1-0.4,2.4-0.7,3.9-0.7c1.6,0,3.1,0.3,4.4,0.8c1.3,0.5,2.5,1.3,3.5,2.3L303,107.6z"/>
	<path class="st1" d="M322.1,134.4h-2.3v-30.5h2.3V134.4z"/>
	<path class="st1" d="M355.9,126.8c0.1-0.2,0.2-0.5,0.3-0.7c0.1-0.2,0.2-0.4,0.3-0.6l12.3-21.2c0.1-0.2,0.2-0.3,0.4-0.3
		c0.1,0,0.3-0.1,0.5-0.1h1.6v30.5h-2v-26c0-0.4,0-0.8,0.1-1.2L357,128.5c-0.2,0.4-0.5,0.6-0.9,0.6h-0.4c-0.4,0-0.7-0.2-0.9-0.6
		l-12.7-21.3c0,0.4,0.1,0.8,0.1,1.2v26h-2v-30.5h1.6c0.2,0,0.4,0,0.5,0.1c0.1,0,0.2,0.2,0.4,0.3l12.7,21.2
		C355.6,125.9,355.8,126.3,355.9,126.8z"/>
	<path class="st1" d="M391.5,122.1v12.3h-2.3v-30.5h8.1c3.7,0,6.5,0.8,8.3,2.3c1.9,1.6,2.8,3.8,2.8,6.7c0,1.3-0.3,2.6-0.8,3.7
		c-0.5,1.1-1.2,2.1-2.2,2.9c-1,0.8-2.1,1.4-3.5,1.9s-2.9,0.7-4.7,0.7H391.5z M391.5,120.3h5.8c1.4,0,2.6-0.2,3.7-0.6
		c1.1-0.4,2-0.9,2.8-1.6c0.8-0.7,1.3-1.4,1.8-2.3c0.4-0.9,0.6-1.9,0.6-2.9c0-2.3-0.7-4.1-2.2-5.4s-3.7-1.9-6.6-1.9h-5.8V120.3z"/>
	<path class="st1" d="M425.1,132.5H440v1.9h-17.1v-30.5h2.3V132.5z"/>
	<path class="st1" d="M459,121.8v12.6h-2.3v-12.6l-11.6-17.9h2c0.2,0,0.4,0,0.5,0.1c0.1,0.1,0.2,0.2,0.4,0.4l9,14
		c0.2,0.3,0.4,0.7,0.5,1s0.3,0.6,0.4,0.9c0.1-0.3,0.3-0.6,0.4-0.9c0.1-0.3,0.3-0.6,0.5-1l9-14c0.1-0.2,0.2-0.3,0.3-0.4
		c0.1-0.1,0.3-0.2,0.5-0.2h2L459,121.8z"/>
	<path class="st2" d="M33.1,161.6c-0.2,0.4-0.5,0.6-1,0.6c-0.3,0-0.7-0.2-1.2-0.7c-0.5-0.4-1.2-0.9-2.1-1.5s-1.9-1-3.2-1.5
		c-1.3-0.5-2.9-0.7-4.8-0.7c-1.9,0-3.6,0.3-5,0.8c-1.4,0.5-2.7,1.2-3.6,2.2c-1,0.9-1.7,2-2.2,3.2c-0.5,1.2-0.8,2.5-0.8,3.8
		c0,1.7,0.4,3.1,1.1,4.3s1.7,2.1,3,2.9c1.2,0.8,2.6,1.5,4.2,2c1.6,0.5,3.2,1.1,4.8,1.6s3.3,1.1,4.8,1.7c1.6,0.6,3,1.4,4.2,2.4
		c1.2,1,2.2,2.1,3,3.5s1.1,3.1,1.1,5.2c0,2.1-0.4,4.1-1.1,6c-0.8,1.9-1.8,3.5-3.3,4.9c-1.4,1.4-3.2,2.5-5.2,3.3
		c-2.1,0.8-4.4,1.2-7.1,1.2c-3.5,0-6.4-0.6-8.9-1.8c-2.5-1.2-4.7-2.8-6.5-4.9l1-1.6c0.3-0.4,0.6-0.5,1-0.5c0.2,0,0.5,0.1,0.9,0.4
		s0.8,0.6,1.3,1.1c0.5,0.4,1.1,0.9,1.8,1.4s1.5,0.9,2.4,1.4c0.9,0.4,2,0.8,3.1,1.1s2.5,0.4,4,0.4c2.1,0,3.9-0.3,5.6-0.9
		c1.6-0.6,3-1.4,4.1-2.5c1.1-1.1,2-2.3,2.6-3.8c0.6-1.4,0.9-3,0.9-4.6c0-1.8-0.4-3.3-1.1-4.4c-0.8-1.2-1.7-2.1-3-2.9
		c-1.2-0.8-2.6-1.4-4.2-2s-3.2-1-4.8-1.5s-3.3-1.1-4.8-1.7c-1.6-0.6-3-1.4-4.2-2.4c-1.2-1-2.2-2.2-3-3.6c-0.8-1.4-1.1-3.3-1.1-5.4
		c0-1.7,0.3-3.3,1-4.9s1.6-3,2.9-4.2c1.3-1.2,2.9-2.2,4.8-2.9c1.9-0.7,4-1.1,6.5-1.1c2.7,0,5.2,0.4,7.3,1.3c2.2,0.8,4.1,2.1,5.9,3.8
		L33.1,161.6z"/>
	<path class="st2" d="M93.9,155.4v3.1H75.5v47.7h-3.8v-47.7H53.2v-3.1H93.9z"/>
	<path class="st2" d="M135.5,203.6c2.5,0,4.8-0.4,6.7-1.3c2-0.8,3.7-2,5-3.5c1.4-1.5,2.4-3.3,3.2-5.3c0.7-2,1.1-4.3,1.1-6.6v-31.4
		h3.8v31.4c0,2.8-0.5,5.4-1.4,7.8c-0.9,2.4-2.2,4.5-3.9,6.4c-1.7,1.8-3.8,3.2-6.2,4.3c-2.5,1-5.2,1.5-8.3,1.5
		c-3.1,0-5.8-0.5-8.3-1.5c-2.5-1-4.5-2.4-6.2-4.3c-1.7-1.8-3-3.9-3.9-6.4c-0.9-2.4-1.4-5-1.4-7.8v-31.4h3.8v31.4
		c0,2.4,0.4,4.6,1.1,6.6c0.7,2,1.8,3.8,3.1,5.3s3,2.7,5,3.6C130.8,203.1,133,203.6,135.5,203.6z"/>
	<path class="st2" d="M186.4,155.5c0.2,0.1,0.4,0.3,0.6,0.6l33.9,44c-0.1-0.7-0.1-1.4-0.1-2.1v-42.6h3.3v50.8h-1.8
		c-0.6,0-1-0.2-1.4-0.7l-34-44.1c0.1,0.7,0.1,1.4,0.1,2v42.8h-3.3v-50.8h1.8C185.9,155.4,186.2,155.4,186.4,155.5z"/>
	<path class="st2" d="M255.6,155.5c0.2,0.1,0.4,0.3,0.6,0.6l33.9,44c-0.1-0.7-0.1-1.4-0.1-2.1v-42.6h3.3v50.8h-1.8
		c-0.6,0-1-0.2-1.4-0.7l-34-44.1c0.1,0.7,0.1,1.4,0.1,2v42.8h-3.3v-50.8h1.8C255.1,155.4,255.4,155.4,255.6,155.5z"/>
	<path class="st2" d="M327.3,206.2h-3.8v-50.8h3.8V206.2z"/>
	<path class="st2" d="M360.2,155.5c0.2,0.1,0.4,0.3,0.6,0.6l33.9,44c-0.1-0.7-0.1-1.4-0.1-2.1v-42.6h3.3v50.8h-1.8
		c-0.6,0-1-0.2-1.4-0.7l-34-44.1c0.1,0.7,0.1,1.4,0.1,2v42.8h-3.3v-50.8h1.8C359.7,155.4,360,155.4,360.2,155.5z"/>
	<path class="st2" d="M449.2,203.8c1.8,0,3.4-0.1,4.9-0.3s2.9-0.4,4.1-0.8s2.5-0.8,3.6-1.3s2.3-1.1,3.5-1.7V186h-10.1
		c-0.3,0-0.5-0.1-0.7-0.3c-0.2-0.2-0.3-0.4-0.3-0.6v-2h14.5v18.1c-1.3,0.9-2.7,1.7-4.1,2.4c-1.4,0.7-2.9,1.3-4.5,1.7
		c-1.6,0.5-3.3,0.8-5.2,1.1c-1.8,0.3-3.9,0.4-6.1,0.4c-3.8,0-7.2-0.6-10.3-1.8c-3.1-1.2-5.8-3-8-5.2c-2.2-2.3-4-5-5.2-8.2
		c-1.2-3.2-1.8-6.8-1.8-10.7s0.6-7.5,1.8-10.7c1.2-3.2,3-5.9,5.2-8.2s5-4,8.3-5.2c3.2-1.2,6.9-1.8,10.9-1.8c2,0,3.8,0.1,5.5,0.4
		c1.7,0.3,3.3,0.7,4.7,1.2c1.5,0.5,2.8,1.1,4.1,1.9s2.5,1.6,3.6,2.6l-1,1.6c-0.2,0.4-0.5,0.5-0.9,0.5c-0.2,0-0.4,0-0.6-0.1
		c-0.4-0.1-0.9-0.5-1.6-1s-1.7-1.1-2.8-1.7c-1.2-0.6-2.7-1.1-4.5-1.5c-1.8-0.5-4-0.7-6.5-0.7c-3.4,0-6.5,0.5-9.2,1.6
		c-2.7,1.1-5.1,2.6-7,4.5c-1.9,2-3.4,4.4-4.5,7.2c-1,2.8-1.6,6-1.6,9.5c0,3.6,0.5,6.8,1.6,9.7c1.1,2.8,2.5,5.3,4.5,7.2
		c1.9,2,4.2,3.5,6.9,4.5C443,203.3,446,203.8,449.2,203.8z"/>
</g>
</svg>
