<?xml version="1.0" encoding="utf-8"?>
<!-- Generator: Adobe Illustrator 19.1.1, SVG Export Plug-In . SVG Version: 6.00 Build 0)  -->
<svg version="1.1" id="Layer_1" xmlns="http://www.w3.org/2000/svg" xmlns:xlink="http://www.w3.org/1999/xlink" x="0px" y="0px"
	 viewBox="0 0 572.1 219.5" style="enable-background:new 0 0 572.1 219.5;" xml:space="preserve">
<style type="text/css">
	.st0{fill:#FF4E38;}
	.st1{fill:#B3B3B3;}
	.st2{fill:#5CB6C2;}
</style>
<g>
	<path class="st0" d="M0.7,14h4c0.5,0,0.8,0.1,1.1,0.4c0.3,0.2,0.5,0.6,0.7,0.9l23.8,56.2c0.6,1.5,1.1,3,1.5,4.7
		c0.4-1.7,0.8-3.3,1.4-4.7L57,15.3c0.2-0.4,0.4-0.7,0.7-0.9c0.3-0.3,0.7-0.4,1.2-0.4h3.9L34,81.7h-4.5L0.7,14z"/>
	<path class="st0" d="M98.5,81.7h-5.1V14h5.1V81.7z"/>
	<path class="st0" d="M180.6,14v4.1h-36.7v27.4h30.6v4h-30.6v28.2h36.7v4.1h-41.8V14H180.6z"/>
	<path class="st0" d="M205.3,14h4.2c1,0,1.6,0.4,1.8,1.3L228.9,71c0.2,0.6,0.4,1.3,0.5,2.1s0.3,1.5,0.5,2.3c0.2-0.8,0.3-1.6,0.5-2.3
		c0.2-0.7,0.4-1.4,0.6-2.1l19.7-55.7c0.1-0.4,0.4-0.7,0.7-0.9c0.3-0.3,0.7-0.4,1.2-0.4h1.4c0.5,0,0.8,0.1,1.1,0.4s0.5,0.6,0.7,0.9
		L275.5,71c0.2,0.6,0.4,1.3,0.6,2c0.2,0.7,0.4,1.5,0.5,2.3c0.2-0.8,0.3-1.5,0.4-2.2c0.1-0.7,0.3-1.4,0.5-2l17.6-55.7
		c0.1-0.4,0.3-0.7,0.7-0.9c0.3-0.3,0.7-0.4,1.2-0.4h3.8L279,81.7h-4.5L253.8,23c-0.3-0.8-0.5-1.6-0.7-2.4c-0.2,0.9-0.4,1.7-0.7,2.4
		l-20.7,58.8h-4.5L205.3,14z"/>
	<path class="st0" d="M363.6,22.2c-0.3,0.5-0.7,0.8-1.3,0.8c-0.4,0-1-0.3-1.7-0.9s-1.6-1.2-2.7-2s-2.6-1.4-4.3-2s-3.9-0.9-6.4-0.9
		s-4.8,0.4-6.7,1.1c-1.9,0.7-3.5,1.7-4.8,2.9c-1.3,1.2-2.3,2.6-3,4.2c-0.7,1.6-1,3.3-1,5c0,2.3,0.5,4.2,1.5,5.7c1,1.5,2.3,2.8,4,3.8
		c1.6,1.1,3.5,1.9,5.6,2.7c2.1,0.7,4.2,1.4,6.4,2.1c2.2,0.7,4.4,1.5,6.4,2.3s4,1.9,5.6,3.2s3,2.8,4,4.7c1,1.9,1.5,4.2,1.5,7
		c0,2.8-0.5,5.5-1.5,8c-1,2.5-2.5,4.7-4.4,6.5c-1.9,1.9-4.2,3.3-7,4.4c-2.8,1.1-5.9,1.6-9.5,1.6c-4.6,0-8.6-0.8-11.9-2.4
		c-3.3-1.6-6.2-3.7-8.7-6.5l1.4-2.1c0.4-0.5,0.9-0.7,1.4-0.7c0.3,0,0.7,0.2,1.1,0.6s1,0.9,1.7,1.4c0.7,0.6,1.4,1.2,2.4,1.8
		c0.9,0.7,2,1.3,3.2,1.8c1.2,0.6,2.6,1,4.2,1.4c1.6,0.4,3.4,0.6,5.4,0.6c2.8,0,5.2-0.4,7.4-1.2c2.2-0.8,4-1.9,5.5-3.3
		c1.5-1.4,2.6-3.1,3.4-5c0.8-1.9,1.2-4,1.2-6.2c0-2.4-0.5-4.4-1.5-5.9c-1-1.5-2.3-2.8-4-3.9c-1.6-1-3.5-1.9-5.6-2.6
		c-2.1-0.7-4.2-1.4-6.4-2.1c-2.2-0.7-4.4-1.4-6.4-2.3c-2.1-0.8-4-1.9-5.6-3.2c-1.6-1.3-3-2.9-4-4.8c-1-1.9-1.5-4.3-1.5-7.3
		c0-2.3,0.4-4.5,1.3-6.6s2.2-4,3.9-5.6c1.7-1.6,3.8-2.9,6.3-3.9c2.5-1,5.4-1.5,8.6-1.5c3.6,0,6.9,0.6,9.7,1.7
		c2.9,1.1,5.5,2.8,7.9,5.1L363.6,22.2z"/>
	<path class="st1" d="M25.2,103.9v1.9h-11v28.6h-2.3v-28.6H0.8v-1.9H25.2z"/>
	<path class="st1" d="M62.8,134.4h-2.3v-14.6H40.9v14.6h-2.3v-30.5h2.3v14.2h19.7v-14.2h2.3V134.4z"/>
	<path class="st1" d="M103.7,134.4H102c-0.2,0-0.4-0.1-0.5-0.2c-0.1-0.1-0.2-0.2-0.3-0.4l-3.7-8.9H82l-3.7,8.9
		c-0.1,0.2-0.2,0.3-0.3,0.4c-0.1,0.1-0.3,0.2-0.5,0.2h-1.7l12.8-30.5h2.3L103.7,134.4z M82.7,123.3h14.1l-6.4-15.4
		c-0.1-0.2-0.2-0.5-0.3-0.8s-0.2-0.6-0.3-1c-0.1,0.3-0.2,0.7-0.3,1s-0.2,0.6-0.3,0.9L82.7,123.3z"/>
	<path class="st1" d="M134.6,103.9v1.9h-11v28.6h-2.3v-28.6h-11.1v-1.9H134.6z"/>
	<path class="st1" d="M166.8,132.5h14.9v1.9h-17.1v-30.5h2.3V132.5z"/>
	<path class="st1" d="M214,103.9v1.8h-16.5v12.3h13.8v1.8h-13.8v12.7H214v1.8h-18.8v-30.5H214z"/>
	<path class="st1" d="M253.1,134.4h-1.8c-0.2,0-0.4-0.1-0.5-0.2c-0.1-0.1-0.2-0.2-0.3-0.4l-3.7-8.9h-15.4l-3.7,8.9
		c-0.1,0.2-0.2,0.3-0.3,0.4c-0.1,0.1-0.3,0.2-0.5,0.2h-1.7l12.8-30.5h2.3L253.1,134.4z M232.1,123.3h14.1l-6.4-15.4
		c-0.1-0.2-0.2-0.5-0.3-0.8s-0.2-0.6-0.3-1c-0.1,0.3-0.2,0.7-0.3,1s-0.2,0.6-0.3,0.9L232.1,123.3z"/>
	<path class="st1" d="M259.6,103.9h1.8c0.2,0,0.4,0.1,0.5,0.2c0.1,0.1,0.2,0.2,0.3,0.4l10.7,25.3c0.3,0.7,0.5,1.4,0.7,2.1
		c0.2-0.8,0.4-1.5,0.6-2.1l10.7-25.3c0.1-0.2,0.2-0.3,0.3-0.4c0.1-0.1,0.3-0.2,0.5-0.2h1.8l-13,30.5h-2L259.6,103.9z"/>
	<path class="st1" d="M319.3,103.9v1.8h-16.5v12.3h13.8v1.8h-13.8v12.7h16.5v1.8h-18.8v-30.5H319.3z"/>
	<path class="st1" d="M361,121.8v12.6h-2.3v-12.6l-11.6-17.9h2c0.2,0,0.4,0,0.5,0.1c0.1,0.1,0.2,0.2,0.4,0.4l9,14
		c0.2,0.3,0.4,0.7,0.5,1c0.1,0.3,0.3,0.6,0.4,0.9c0.1-0.3,0.3-0.6,0.4-0.9s0.3-0.6,0.5-1l9-14c0.1-0.2,0.2-0.3,0.3-0.4
		s0.3-0.2,0.5-0.2h2L361,121.8z"/>
	<path class="st1" d="M412,119.1c0,2.4-0.4,4.5-1.1,6.4s-1.7,3.6-3.1,4.9c-1.3,1.4-2.9,2.4-4.7,3.1s-3.9,1.1-6.1,1.1
		c-2.2,0-4.2-0.4-6.1-1.1c-1.8-0.7-3.4-1.8-4.7-3.1c-1.3-1.4-2.3-3-3.1-4.9c-0.7-1.9-1.1-4.1-1.1-6.4c0-2.3,0.4-4.5,1.1-6.4
		c0.7-1.9,1.8-3.6,3.1-4.9c1.3-1.4,2.9-2.4,4.7-3.2c1.8-0.7,3.9-1.1,6.1-1.1c2.2,0,4.3,0.4,6.1,1.1c1.8,0.7,3.4,1.8,4.7,3.2
		c1.3,1.4,2.3,3,3.1,4.9S412,116.8,412,119.1z M409.7,119.1c0-2.1-0.3-4-0.9-5.7s-1.5-3.1-2.6-4.3s-2.4-2.1-4-2.7
		c-1.6-0.6-3.3-0.9-5.2-0.9c-1.9,0-3.6,0.3-5.1,0.9c-1.5,0.6-2.9,1.5-4,2.7s-2,2.6-2.6,4.3c-0.6,1.7-0.9,3.6-0.9,5.7
		c0,2.1,0.3,4.1,0.9,5.7c0.6,1.7,1.5,3.1,2.6,4.3s2.4,2.1,4,2.7c1.5,0.6,3.2,0.9,5.1,0.9c1.9,0,3.6-0.3,5.2-0.9
		c1.6-0.6,2.9-1.5,4-2.7s2-2.6,2.6-4.3C409.4,123.2,409.7,121.3,409.7,119.1z"/>
	<path class="st1" d="M439,132.8c1.5,0,2.9-0.3,4-0.8c1.2-0.5,2.2-1.2,3-2.1s1.5-2,1.9-3.2c0.4-1.2,0.7-2.6,0.7-4v-18.8h2.3v18.8
		c0,1.7-0.3,3.2-0.8,4.7c-0.5,1.5-1.3,2.7-2.4,3.8s-2.3,1.9-3.7,2.6c-1.5,0.6-3.1,0.9-5,0.9s-3.5-0.3-5-0.9
		c-1.5-0.6-2.7-1.5-3.7-2.6s-1.8-2.4-2.4-3.8c-0.5-1.5-0.8-3-0.8-4.7v-18.8h2.3v18.8c0,1.4,0.2,2.7,0.7,4c0.4,1.2,1.1,2.3,1.9,3.2
		s1.8,1.6,3,2.1C436.1,132.6,437.5,132.8,439,132.8z"/>
	<path class="st2" d="M7.8,206.2v-50.8h15c3,0,5.6,0.3,7.7,0.9c2.2,0.6,4,1.4,5.4,2.5c1.4,1.1,2.5,2.5,3.2,4.1
		c0.7,1.6,1.1,3.4,1.1,5.5c0,1.3-0.2,2.6-0.7,3.9c-0.5,1.2-1.2,2.4-2.1,3.4c-0.9,1.1-2,2-3.3,2.7c-1.3,0.8-2.8,1.4-4.5,1.8
		c4.1,0.6,7.3,1.9,9.5,4c2.2,2.1,3.3,4.8,3.3,8.2c0,2.2-0.4,4.1-1.2,5.8c-0.8,1.7-1.9,3.2-3.4,4.4c-1.5,1.2-3.4,2.1-5.5,2.7
		c-2.2,0.6-4.7,1-7.5,1H7.8z M11.5,179.2h11.3c2.4,0,4.5-0.3,6.2-0.9c1.7-0.6,3.1-1.4,4.2-2.4c1.1-1,1.9-2.1,2.4-3.3
		c0.5-1.2,0.8-2.5,0.8-3.8c0-3.4-1.1-6-3.3-7.8c-2.2-1.8-5.7-2.6-10.3-2.6H11.5V179.2z M11.5,181.9v21.4h13.1c4.6,0,8.1-1,10.4-2.9
		s3.5-4.6,3.5-8.1c0-1.6-0.3-3-0.9-4.3c-0.6-1.3-1.5-2.4-2.7-3.3c-1.2-0.9-2.6-1.6-4.4-2.1c-1.7-0.5-3.7-0.7-5.9-0.7H11.5z"/>
	<path class="st2" d="M73.3,183.2v23h-3.8v-50.8h13.3c6,0,10.5,1.1,13.5,3.4c3,2.3,4.5,5.6,4.5,10c0,1.9-0.3,3.7-1,5.3
		c-0.7,1.6-1.7,3-3,4.2c-1.3,1.2-2.9,2.2-4.7,3c-1.8,0.8-3.9,1.3-6.2,1.5c0.6,0.4,1.1,0.8,1.6,1.4l18,22h-3.3c-0.4,0-0.7-0.1-1-0.2
		c-0.3-0.1-0.6-0.4-0.8-0.7l-16.7-20.6c-0.4-0.5-0.9-0.9-1.3-1.1c-0.5-0.2-1.2-0.3-2.2-0.3H73.3z M73.3,180.5h9.1
		c2.3,0,4.4-0.3,6.2-0.8c1.8-0.5,3.4-1.3,4.7-2.3c1.3-1,2.2-2.2,2.9-3.6c0.7-1.4,1-3,1-4.8c0-3.6-1.2-6.3-3.7-8
		c-2.4-1.7-6-2.6-10.6-2.6h-9.6V180.5z"/>
	<path class="st2" d="M159.8,155.4v3.1h-27.5V179h22.9v3h-22.9v21.2h27.5v3.1h-31.3v-50.8H159.8z"/>
	<path class="st2" d="M224.8,206.2h-2.9c-0.3,0-0.6-0.1-0.9-0.3s-0.4-0.4-0.5-0.7l-6.2-14.8h-25.7l-6.1,14.8
		c-0.1,0.3-0.3,0.5-0.5,0.7c-0.2,0.2-0.5,0.3-0.9,0.3h-2.9l21.4-50.8h3.8L224.8,206.2z M189.8,187.7h23.4l-10.7-25.7
		c-0.2-0.4-0.3-0.9-0.5-1.4s-0.3-1.1-0.5-1.6c-0.2,0.6-0.3,1.1-0.5,1.6c-0.2,0.5-0.3,1-0.5,1.4L189.8,187.7z"/>
	<path class="st2" d="M276.3,155.4v3.1h-18.4v47.7h-3.8v-47.7h-18.5v-3.1H276.3z"/>
	<path class="st2" d="M339,206.2h-3.8v-24.3h-32.8v24.3h-3.8v-50.8h3.8v23.7h32.8v-23.7h3.8V206.2z"/>
	<path class="st2" d="M371.6,203.1h24.8v3.1h-28.6v-50.8h3.8V203.1z"/>
	<path class="st2" d="M450.3,155.4v3.1h-27.5V179h22.9v3h-22.9v21.2h27.5v3.1H419v-50.8H450.3z"/>
	<path class="st2" d="M501.3,161.6c-0.2,0.4-0.5,0.6-1,0.6c-0.3,0-0.7-0.2-1.2-0.7c-0.5-0.4-1.2-0.9-2.1-1.5s-1.9-1-3.2-1.5
		c-1.3-0.5-2.9-0.7-4.8-0.7c-1.9,0-3.6,0.3-5,0.8c-1.4,0.5-2.7,1.2-3.6,2.2c-1,0.9-1.7,2-2.2,3.2c-0.5,1.2-0.8,2.5-0.8,3.8
		c0,1.7,0.4,3.1,1.1,4.3c0.8,1.1,1.7,2.1,3,2.9c1.2,0.8,2.6,1.5,4.2,2c1.6,0.5,3.2,1.1,4.8,1.6s3.3,1.1,4.8,1.7
		c1.6,0.6,3,1.4,4.2,2.4c1.2,1,2.2,2.1,3,3.5s1.1,3.1,1.1,5.2c0,2.1-0.4,4.1-1.1,6c-0.8,1.9-1.8,3.5-3.3,4.9
		c-1.4,1.4-3.2,2.5-5.2,3.3c-2.1,0.8-4.4,1.2-7.1,1.2c-3.4,0-6.4-0.6-8.9-1.8c-2.5-1.2-4.7-2.8-6.5-4.9l1-1.6c0.3-0.4,0.6-0.5,1-0.5
		c0.2,0,0.5,0.1,0.9,0.4s0.8,0.6,1.3,1.1c0.5,0.4,1.1,0.9,1.8,1.4s1.5,0.9,2.4,1.4c0.9,0.4,2,0.8,3.1,1.1c1.2,0.3,2.5,0.4,4,0.4
		c2.1,0,3.9-0.3,5.6-0.9c1.6-0.6,3-1.4,4.1-2.5c1.1-1.1,2-2.3,2.6-3.8c0.6-1.4,0.9-3,0.9-4.6c0-1.8-0.4-3.3-1.1-4.4
		c-0.8-1.2-1.7-2.1-3-2.9c-1.2-0.8-2.6-1.4-4.2-2c-1.6-0.5-3.2-1-4.8-1.5s-3.3-1.1-4.8-1.7c-1.6-0.6-3-1.4-4.2-2.4
		c-1.2-1-2.2-2.2-3-3.6c-0.8-1.4-1.1-3.3-1.1-5.4c0-1.7,0.3-3.3,1-4.9s1.6-3,2.9-4.2c1.3-1.2,2.9-2.2,4.8-2.9c1.9-0.7,4-1.1,6.5-1.1
		c2.7,0,5.2,0.4,7.3,1.3c2.2,0.8,4.1,2.1,5.9,3.8L501.3,161.6z"/>
	<path class="st2" d="M553.2,161.6c-0.2,0.4-0.5,0.6-1,0.6c-0.3,0-0.7-0.2-1.2-0.7c-0.5-0.4-1.2-0.9-2.1-1.5s-1.9-1-3.2-1.5
		c-1.3-0.5-2.9-0.7-4.8-0.7c-1.9,0-3.6,0.3-5,0.8c-1.4,0.5-2.7,1.2-3.6,2.2c-1,0.9-1.7,2-2.2,3.2c-0.5,1.2-0.8,2.5-0.8,3.8
		c0,1.7,0.4,3.1,1.1,4.3c0.8,1.1,1.7,2.1,3,2.9c1.2,0.8,2.6,1.5,4.2,2c1.6,0.5,3.2,1.1,4.8,1.6s3.3,1.1,4.8,1.7
		c1.6,0.6,3,1.4,4.2,2.4c1.2,1,2.2,2.1,3,3.5s1.1,3.1,1.1,5.2c0,2.1-0.4,4.1-1.1,6s-1.8,3.5-3.3,4.9c-1.4,1.4-3.2,2.5-5.2,3.3
		c-2.1,0.8-4.4,1.2-7.1,1.2c-3.5,0-6.4-0.6-8.9-1.8c-2.5-1.2-4.7-2.8-6.5-4.9l1-1.6c0.3-0.4,0.6-0.5,1-0.5c0.2,0,0.5,0.1,0.9,0.4
		s0.8,0.6,1.3,1.1c0.5,0.4,1.1,0.9,1.8,1.4s1.5,0.9,2.4,1.4s2,0.8,3.1,1.1c1.2,0.3,2.5,0.4,4,0.4c2.1,0,3.9-0.3,5.6-0.9
		s3-1.4,4.1-2.5c1.1-1.1,2-2.3,2.6-3.8c0.6-1.4,0.9-3,0.9-4.6c0-1.8-0.4-3.3-1.1-4.4c-0.8-1.2-1.7-2.1-3-2.9c-1.2-0.8-2.6-1.4-4.2-2
		c-1.6-0.5-3.2-1-4.8-1.5s-3.3-1.1-4.8-1.7c-1.6-0.6-3-1.4-4.2-2.4c-1.2-1-2.2-2.2-3-3.6c-0.8-1.4-1.1-3.3-1.1-5.4
		c0-1.7,0.3-3.3,1-4.9s1.6-3,2.9-4.2c1.3-1.2,2.9-2.2,4.8-2.9c1.9-0.7,4-1.1,6.5-1.1c2.7,0,5.2,0.4,7.3,1.3s4.1,2.1,5.9,3.8
		L553.2,161.6z"/>
</g>
</svg>
